<svg width="289" height="73" viewBox="0 0 289 73" fill="none" xmlns="http://www.w3.org/2000/svg">
<g clip-path="url(#clip0_1376_1115)">
<mask id="mask0_1376_1115" style="mask-type:luminance" maskUnits="userSpaceOnUse" x="0" y="0" width="289" height="73">
<path d="M289 0H0V73H289V0Z" fill="white"/>
</mask>
<g mask="url(#mask0_1376_1115)">
<path d="M110.47 1.71643L85.537 66.4096H98.9363L104.111 52.8981H130.583L135.733 66.4096H149.03L124.189 1.71643H110.47ZM108.651 41.025L117.374 18.2604L126.049 41.025H108.651Z" fill="black"/>
<path d="M265.286 20.1434C260.597 20.1434 256.015 21.5239 252.117 24.1104C248.219 26.6967 245.182 30.373 243.389 34.6739C241.594 38.9749 241.125 43.7076 242.038 48.2736C242.953 52.8396 245.211 57.0338 248.526 60.3255C251.84 63.6174 256.063 65.8593 260.661 66.7676C265.259 67.6757 270.025 67.2096 274.357 65.428C278.686 63.6464 282.388 60.6296 284.992 56.7587C287.598 52.888 288.986 48.337 288.986 43.6817C288.986 37.4389 286.489 31.4519 282.046 27.0377C277.601 22.6233 271.571 20.1434 265.286 20.1434ZM265.286 55.1512C263.002 55.1512 260.769 54.4786 258.872 53.2188C256.972 51.9588 255.492 50.1679 254.618 48.0727C253.744 45.9776 253.515 43.6719 253.962 41.4477C254.407 39.2235 255.506 37.1803 257.121 35.5768C258.736 33.9731 260.793 32.881 263.033 32.4386C265.273 31.9961 267.594 32.2232 269.704 33.0911C271.813 33.9589 273.618 35.4287 274.887 37.3142C276.154 39.1999 276.831 41.4168 276.831 43.6848C276.835 45.1911 276.537 46.6833 275.958 48.0755C275.378 49.4677 274.529 50.7327 273.455 51.798C272.383 52.8634 271.109 53.7079 269.706 54.2832C268.306 54.8586 266.803 55.1535 265.286 55.1512Z" fill="black"/>
<path d="M164.996 49.7252L154.174 20.9597H141.393L158.812 66.4097H171.491L188.6 20.9597H175.819L164.996 49.7252Z" fill="black"/>
<path d="M228.797 8.88184H216.636V20.9597H209.525V31.8117H216.636V51.1588C216.636 62.1117 222.718 66.8192 231.272 66.8192C234.173 66.8609 237.052 66.3029 239.725 65.1808V53.9223C238.27 54.4548 236.736 54.737 235.187 54.7568C231.494 54.7568 228.797 53.3231 228.797 48.4106V31.8117H239.725V20.9597H228.797V8.88184Z" fill="black"/>
<path d="M198.598 17.6857C203.494 17.6857 207.463 13.7441 207.463 8.88187C207.463 4.01963 203.494 0.0780029 198.598 0.0780029C193.702 0.0780029 189.732 4.01963 189.732 8.88187C189.732 13.7441 193.702 17.6857 198.598 17.6857Z" fill="black"/>
<path d="M204.679 20.9597H192.518V66.4097H204.679V20.9597Z" fill="black"/>
<path d="M23.7864 72.8598C36.8798 72.8598 47.4943 62.3186 47.4943 49.3156C47.4943 36.3124 36.8798 25.7714 23.7864 25.7714C10.693 25.7714 0.0785828 36.3124 0.0785828 49.3156C0.0785828 62.3186 10.693 72.8598 23.7864 72.8598Z" fill="#04E061"/>
<path d="M64.9136 69.8885C72.8255 69.8885 79.2392 63.5188 79.2392 55.6616C79.2392 47.8043 72.8255 41.4348 64.9136 41.4348C57.0017 41.4348 50.5878 47.8043 50.5878 55.6616C50.5878 63.5188 57.0017 69.8885 64.9136 69.8885Z" fill="#FF4053"/>
<path d="M28.3204 22.7021C33.2166 22.7021 37.1856 18.7605 37.1856 13.8982C37.1856 9.036 33.2166 5.09436 28.3204 5.09436C23.4245 5.09436 19.4555 9.036 19.4555 13.8982C19.4555 18.7605 23.4245 22.7021 28.3204 22.7021Z" fill="#965EEB"/>
<path d="M59.3481 38.3627C69.9935 38.3627 78.6235 29.7923 78.6235 19.2204C78.6235 8.64831 69.9935 0.0780029 59.3481 0.0780029C48.7025 0.0780029 40.0727 8.64831 40.0727 19.2204C40.0727 29.7923 48.7025 38.3627 59.3481 38.3627Z" fill="#00AAFF"/>
</g>
</g>
<defs>
<clipPath id="clip0_1376_1115">
<rect width="289" height="73" fill="white"/>
</clipPath>
</defs>
</svg>
