<svg width="132" height="132" viewBox="0 0 132 132" fill="none" xmlns="http://www.w3.org/2000/svg">
<path fill-rule="evenodd" clip-rule="evenodd" d="M128.662 85.2746V46.8798C128.662 11.81 120.381 3.46629 85.301 3.46629C-0.485774 2.91585 2.89474 -0.572904 3.47026 85.2099C3.47026 120.28 11.7506 128.623 46.8309 128.623H75.9488C113.22 129.266 129.599 126.704 128.662 85.2746ZM104.537 92.7722H95.4083C91.9525 92.7722 90.9097 89.9685 84.7149 83.7764C79.3029 78.5611 77.0207 77.909 75.6518 77.909C73.7603 77.909 73.2389 78.4304 73.2389 81.0374V89.2504C73.2389 91.4667 72.5221 92.7709 66.7181 92.7709C57.0675 92.7709 46.4402 86.9035 38.8753 76.0835C27.5299 60.2435 24.4649 48.2486 24.4649 45.837C24.4649 44.4681 24.9863 43.2287 27.5946 43.2287H36.7237C39.0707 43.2287 39.9181 44.2715 40.8315 46.6831C44.5737 58.9512 57.3923 79.365 57.5889 67.6077V54.1794C57.1982 48.0519 53.9378 47.5305 53.9378 45.3143C53.9378 44.3361 54.8513 43.2287 56.2848 43.2287H70.6292C72.5855 43.2287 73.2375 44.2068 73.2375 46.5524V64.6747C73.4857 69.0201 76.1891 67.3107 78.9109 64.4793C85.4964 57.1784 90.1256 45.8357 90.1256 45.8357C90.713 44.4668 91.7558 43.2287 94.1028 43.2287H103.232C105.971 43.2287 106.557 44.5975 105.971 46.5537C104.862 51.8984 93.7121 67.5431 93.7121 67.6091C92.7339 69.1086 92.3432 69.8913 93.7121 71.6509C96.3402 74.9258 115.491 92.2204 104.537 92.7722Z" fill="#345E90"/>
</svg>
