<svg width="102" height="63" viewBox="0 0 102 63" fill="none" xmlns="http://www.w3.org/2000/svg">
<g clip-path="url(#clip0_725_1101)">
<path d="M50.8485 23.2861C44.6352 23.2861 38.4162 23.2861 32.2029 23.2861C30.8623 23.2861 30.4718 22.892 30.4718 21.5419C30.4718 18.4419 30.4369 15.3419 30.4951 12.2477C30.5534 9.15933 32.8907 7.05596 35.9973 7.18923C38.2238 7.28774 40.497 9.17091 41.0041 11.3033C41.109 11.7494 40.8117 11.6915 40.6019 11.7552C39.5527 12.0623 38.6202 12.5664 37.8858 13.3718C36.5743 14.8147 36.0031 16.4718 36.7491 18.3492C37.4894 20.2034 39.1098 20.8408 40.9516 20.8988C43.3238 20.9741 45.7019 20.9219 48.0741 20.9219C52.1017 20.9219 56.1291 20.9219 60.1567 20.9219C60.8561 20.9219 61.5497 20.8698 62.2258 20.6728C64.6913 19.9601 65.8512 17.7756 65.0235 15.3593C64.3824 13.4877 63.0185 12.3578 61.1592 11.761C60.9319 11.6857 60.5472 11.761 60.7279 11.2743C61.4273 9.36792 62.6105 7.90194 64.6505 7.36886C66.6497 6.84157 68.4274 7.36886 69.9079 8.80007C70.8288 9.68661 71.2135 10.8165 71.2193 12.0623C71.2485 15.3709 71.2543 18.6737 71.2426 21.9823C71.2426 22.8399 70.6831 23.2861 69.7039 23.2861C63.4207 23.2861 57.1375 23.2861 50.8485 23.2861Z" fill="#B41F26"/>
<path d="M50.8659 11.2801C48.517 11.2279 46.1623 11.17 43.8192 11.3264C43.0731 11.3786 42.4903 11.1062 42.0415 10.5674C41.6451 10.0864 41.2838 9.57073 40.9515 9.04344C39.8966 7.37465 38.3986 6.35484 36.4402 6.12886C35.7058 6.04195 35.6883 5.73485 35.7816 5.19018C36.1255 3.15635 38.3986 1.01241 40.4619 0.798018C41.2022 0.72269 41.9482 0.68214 42.6885 0.68214C48.1323 0.670551 53.5762 0.676346 59.0259 0.68214C59.6321 0.68214 60.2325 0.728486 60.8386 0.763252C63.4032 0.913907 64.8137 2.51316 65.7929 4.65709C65.8978 4.88307 65.9153 5.14962 65.9678 5.39298C66.0552 5.82177 65.9619 6.03616 65.4315 6.0941C63.4207 6.33166 61.8528 7.31091 60.7862 9.03764C60.6754 9.21727 60.5414 9.37951 60.4423 9.55914C59.7021 10.9266 58.6354 11.4539 57.0093 11.3148C54.9693 11.1468 52.9118 11.2801 50.8659 11.2801Z" fill="#B41F26"/>
<path d="M57.7962 14.073C57.4814 14.7509 57.1667 15.4289 56.8519 16.1068C56.4206 17.0281 56.0068 17.9552 55.5522 18.8591C55.4298 19.1083 55.4298 19.5081 55.0451 19.5313C54.6371 19.5545 54.6429 19.1315 54.5263 18.8939C53.7453 17.3352 52.9934 15.7591 52.1191 14.2062C52.1191 15.6143 52.0958 17.0281 52.1308 18.4361C52.1425 18.8765 52.294 18.9403 53.4947 19.4965C52.3698 19.4965 51.3556 19.4965 50.3356 19.4965C50.3414 19.2705 50.5221 19.3111 50.6387 19.2821C51.309 19.1373 51.6237 18.7259 51.6179 18.0537C51.6179 16.947 51.6237 15.8345 51.6237 14.7277C51.6237 13.3776 51.6237 13.3776 50.3414 12.9199C51.2623 12.9199 52.1891 12.9025 53.11 12.9315C53.2907 12.9373 53.3257 13.2038 53.4073 13.3661C54.1183 14.8147 54.8236 16.269 55.5347 17.7292C55.8436 17.6249 55.8494 17.3294 55.9485 17.1208C56.5489 15.875 57.1375 14.6176 57.7087 13.3603C57.8603 13.0184 58.0468 12.8677 58.4373 12.8851C59.1658 12.9199 59.8944 12.8967 60.7221 12.8967C60.5122 13.2038 60.3141 13.1285 60.1567 13.1632C59.6613 13.2791 59.3873 13.5573 59.3931 14.0846C59.399 15.4231 59.399 16.7674 59.3931 18.1059C59.3931 18.9924 60.0343 19.2358 60.7279 19.4907C59.364 19.4907 58.0002 19.4907 56.6363 19.4907C56.6421 19.456 56.6363 19.3864 56.6538 19.3806C57.8719 18.9403 57.9361 18.8475 57.9361 17.5264C57.9361 16.3965 57.9361 15.2608 57.9361 14.1309C57.8953 14.1077 57.8428 14.0904 57.7962 14.073Z" fill="#B41F26"/>
<path d="M29.6849 60.2311C29.8831 59.333 30.1279 58.4464 30.2736 57.5425C30.3902 56.8066 30.9147 57.1253 31.2936 57.0847C31.8065 57.0268 31.6783 57.4324 31.6783 57.7047C31.6841 59.0433 31.6783 60.3876 31.6841 61.7261C31.6841 62.0505 31.6433 62.2418 31.2411 62.2418C30.8215 62.2418 30.8798 61.9868 30.8798 61.7376C30.8798 60.7236 30.8798 59.7038 30.7749 58.6666C30.5709 59.6633 30.3669 60.6541 30.1512 61.6507C30.0871 61.9578 30.0638 62.2649 29.58 62.2476C29.1079 62.2302 29.1429 61.9115 29.0846 61.6391C28.8689 60.6541 28.6707 59.6633 28.3677 58.684C28.3677 59.7096 28.3618 60.7352 28.3735 61.7608C28.3735 62.0447 28.3618 62.2418 27.9771 62.236C27.6274 62.2244 27.5517 62.0911 27.5517 61.7724C27.5633 60.3644 27.5633 58.9505 27.5517 57.5425C27.5517 57.247 27.5925 57.0094 27.9538 57.079C28.2919 57.1427 28.7873 56.8124 28.9272 57.4266C29.137 58.3653 29.341 59.304 29.545 60.2427C29.5917 60.2427 29.6383 60.2369 29.6849 60.2311Z" fill="#B41F26"/>
<path d="M39.133 59.6169C39.133 58.8984 39.1447 58.1799 39.1272 57.4672C39.1214 57.1717 39.2205 57.0616 39.5235 57.0674C40.3162 57.0847 41.1089 57.0847 41.8958 57.0674C42.2746 57.0616 42.2921 57.2702 42.2921 57.5541C42.2979 57.8496 42.1872 57.9713 41.8841 57.9539C41.4645 57.9365 41.0448 57.9655 40.6251 57.9423C40.2055 57.9191 39.949 57.9423 39.9549 58.5044C39.9607 59.0259 40.153 59.1244 40.6077 59.0838C40.9515 59.049 41.3071 59.0896 41.6568 59.0722C41.9482 59.0606 42.1347 59.0896 42.1289 59.4662C42.1231 59.8197 42.0415 59.9761 41.6626 59.9414C41.412 59.9124 41.1497 59.9356 40.8933 59.9356C39.9665 59.9356 39.8033 60.1558 39.9723 61.0713C40.0248 61.3436 40.1822 61.332 40.3629 61.332C40.8758 61.332 41.3887 61.3552 41.9016 61.3262C42.2863 61.3031 42.3621 61.4653 42.3621 61.8072C42.3621 62.1606 42.2222 62.236 41.9074 62.2302C41.1381 62.2128 40.3687 62.207 39.6051 62.2302C39.2438 62.2418 39.1097 62.1375 39.1272 61.7666C39.1505 61.0539 39.133 60.3354 39.133 59.6169Z" fill="#B41F26"/>
<path d="M62.1909 62.2244C60.5997 62.2244 60.5997 62.2244 60.5997 60.6541C60.5997 59.6169 60.6113 58.5797 60.5938 57.5425C60.588 57.1833 60.6929 57.0558 61.0659 57.0674C61.8062 57.0905 62.5522 57.0848 63.2925 57.0674C63.613 57.0616 63.7413 57.1485 63.7413 57.4904C63.7413 57.8496 63.6422 57.9887 63.2691 57.9597C62.9019 57.9307 62.5173 58.0061 62.1559 57.9423C61.4448 57.8206 61.4215 58.2089 61.4506 58.7304C61.4681 58.9969 61.5439 59.0954 61.8178 59.0838C62.2841 59.0664 62.7504 59.0954 63.2109 59.0722C63.5314 59.0548 63.5955 59.1939 63.5897 59.4778C63.5839 59.756 63.5897 59.9819 63.1992 59.9414C62.9253 59.9124 62.6397 59.9356 62.3657 59.9356C61.4273 59.9356 61.4565 59.9356 61.4506 60.8627C61.4506 61.2857 61.6197 61.3552 61.981 61.3378C62.4648 61.3147 62.9544 61.3494 63.444 61.3262C63.8229 61.3089 63.8345 61.5291 63.8403 61.8072C63.8462 62.0911 63.7646 62.236 63.4498 62.2244C63.0243 62.2128 62.6105 62.2244 62.1909 62.2244Z" fill="#B41F26"/>
<path d="M71.1552 59.6632C71.1552 58.9679 71.1727 58.2784 71.1494 57.5831C71.1377 57.2122 71.2718 57.1137 71.6273 57.1137C72.012 57.1079 72.0237 57.2991 72.0237 57.5889C72.012 58.6261 72.0528 59.669 72.0062 60.7062C71.9829 61.2451 72.1694 61.4016 72.6765 61.3436C72.997 61.3089 73.3293 61.3436 73.6498 61.332C73.9529 61.3204 74.1744 61.3262 74.1802 61.755C74.1861 62.1896 73.9937 62.2475 73.6323 62.236C72.9795 62.2186 72.3267 62.207 71.6798 62.2418C71.231 62.2649 71.1261 62.0853 71.1435 61.6797C71.1727 61.0018 71.1552 60.3354 71.1552 59.6632Z" fill="#B41F26"/>
<path fill-rule="evenodd" clip-rule="evenodd" d="M15.609 39.9449C14.8629 39.2902 13.9536 38.9483 12.8753 38.6875C13.047 38.6215 13.2092 38.563 13.3638 38.5073C13.6975 38.387 13.9954 38.2796 14.2742 38.1371C16.0636 37.181 17.0953 35.7092 17.0311 33.6696C16.9729 31.6532 15.7197 30.4421 13.9245 29.7178C13.0153 29.3528 12.0535 29.1616 11.0685 29.1558C8.57331 29.1471 6.07804 29.1482 3.58285 29.1493C2.74995 29.1496 1.91705 29.15 1.08415 29.15C0.851003 29.15 0.617866 29.1616 0.38472 29.1732C0.163234 29.1847 0.0408335 29.2717 0.0466621 29.515C0.0524906 29.7178 0.145748 29.7932 0.33809 29.8221C0.728603 29.8859 1.11912 29.9496 1.5038 30.0365C2.47135 30.2567 2.79192 30.5986 2.92015 31.5778C2.96783 31.9308 2.96735 32.2885 2.96687 32.6467C2.96682 32.6825 2.96677 32.7183 2.96677 32.7541V45.3801C2.96677 45.6292 2.96677 45.8842 2.93763 46.1391C2.74528 47.9006 2.40724 48.2483 0.64118 48.5206C0.590186 48.5279 0.533628 48.5286 0.4763 48.5293C0.25842 48.532 0.0294152 48.5349 0.0524874 48.8973C0.0760786 49.2631 0.321198 49.2379 0.543588 49.215C0.595921 49.2096 0.646997 49.2044 0.693631 49.2044C2.97426 49.2121 5.25489 49.2147 7.53553 49.2172C8.67624 49.2186 9.81701 49.2198 10.9578 49.2218C11.6339 49.2218 12.3099 49.1986 12.9744 49.0885C15.1251 48.7292 16.9204 47.8253 17.5441 45.5829C18.1677 43.3231 17.3342 41.4515 15.609 39.9449ZM6.32989 34.0057C6.32989 33.6724 6.33117 33.3388 6.33245 33.0049C6.33595 32.1139 6.33945 31.2214 6.31823 30.332C6.30657 29.9032 6.42897 29.7758 6.86029 29.7932C7.57143 29.8163 8.28514 29.8137 8.99803 29.8112C9.35428 29.8099 9.71064 29.8086 10.066 29.8105C11.529 29.8163 12.549 30.5232 13.1027 31.8386C13.7555 33.3915 13.6739 34.956 12.8929 36.4509C12.2517 37.6851 11.2201 38.3341 9.80372 38.3399C9.48501 38.3418 9.16695 38.3399 8.84911 38.338C8.21368 38.3341 7.57907 38.3302 6.94189 38.3573C6.46395 38.3746 6.29492 38.253 6.3124 37.7489C6.3423 36.8309 6.33776 35.9161 6.33321 35.0021C6.33152 34.6699 6.32989 34.3378 6.32989 34.0057ZM6.32989 43.7461C6.32989 43.3939 6.33024 43.0418 6.33059 42.6897C6.3317 41.6338 6.3328 40.5779 6.32406 39.5219C6.32406 39.2148 6.32989 38.9831 6.75537 39.0062C7.22673 39.0298 7.69908 39.0409 8.1716 39.052C8.86176 39.0682 9.55233 39.0845 10.2409 39.1395C11.7097 39.2612 12.7588 40.055 13.3417 41.3877C14.1693 43.2825 14.111 45.1657 13.0094 46.9503C12.3566 48.0107 11.3658 48.5438 10.101 48.5438C9.81672 48.5438 9.53205 48.5422 9.24721 48.5405C8.4632 48.536 7.67751 48.5315 6.89526 48.5612C6.41149 48.5786 6.31823 48.4047 6.32989 47.9702C6.33764 47.0315 6.33508 46.0928 6.33245 45.1541C6.33117 44.6847 6.32989 44.2154 6.32989 43.7461Z" fill="#B41F26"/>
<path fill-rule="evenodd" clip-rule="evenodd" d="M66.1555 49.2109C66.5804 49.2105 67.0053 49.2102 67.4307 49.2102C67.9256 49.2102 68.4204 49.2124 68.9147 49.2146C70.0268 49.2195 71.1371 49.2244 72.251 49.2044C75.9696 49.129 78.8955 47.072 80.2186 43.6186C81.2561 40.9126 81.2153 38.1834 80.2827 35.4717C78.8547 31.2939 75.7073 29.1152 71.2485 29.1326C70.0979 29.1374 68.368 29.1412 66.7162 29.1449C64.3836 29.15 62.2048 29.1548 62.0277 29.1616C61.8528 29.1674 61.7187 29.2311 61.7129 29.4455C61.7071 29.6599 61.7595 29.799 62.0102 29.8105C62.1133 29.8143 62.2159 29.8379 62.3208 29.8619C62.3756 29.8746 62.4316 29.8874 62.4881 29.8975C64.2775 30.1988 64.5281 30.4769 64.5981 32.279V32.2805C64.6039 32.4422 64.6097 32.604 64.6097 32.7657C64.6155 36.816 64.6214 40.8604 64.6155 44.9107C64.6155 45.6524 64.6039 46.3941 64.4174 47.1184C64.2658 47.7094 63.9394 48.115 63.3391 48.2715C63.0045 48.3588 62.6595 48.4306 62.3185 48.5016L62.255 48.5148C62.2013 48.5268 62.1436 48.5308 62.0859 48.5348C61.8924 48.5483 61.7042 48.5614 61.7129 48.8741C61.7222 49.2549 61.9682 49.2329 62.1914 49.2129C62.2398 49.2086 62.287 49.2044 62.3307 49.2044C63.6072 49.2131 64.8807 49.212 66.1555 49.2109ZM68.0154 37.0207C68.0142 37.76 68.0136 38.4992 68.0136 39.238C68.0136 40.0689 68.0148 40.8998 68.0154 41.7307C68.0177 43.8086 68.02 45.8865 68.0078 47.9644C68.0019 48.4453 68.1243 48.6018 68.6198 48.5786C69.1665 48.5537 69.7144 48.5538 70.2623 48.554C70.7373 48.5541 71.2117 48.5542 71.6856 48.538C72.9504 48.4917 74.0229 47.9933 74.903 47.0894C75.7306 46.2434 76.2319 45.2062 76.5699 44.0937C77.3043 41.6832 77.2286 39.2148 77.0479 36.7464C76.9313 35.2051 76.535 33.7449 75.7481 32.4064C74.7339 30.6913 73.2302 29.8047 71.2193 29.799C70.9588 29.799 70.6982 29.8014 70.4377 29.8039C69.8123 29.81 69.1886 29.816 68.5673 29.7874C68.0952 29.7642 68.0019 29.9264 68.0019 30.3668C68.0194 32.5831 68.0171 34.8027 68.0154 37.0207Z" fill="#B41F26"/>
<path fill-rule="evenodd" clip-rule="evenodd" d="M49.4262 39.7206C49.1424 39.6284 48.8588 39.5364 48.5753 39.4466C49.1048 39.374 49.6307 39.3227 50.1519 39.2719C50.9619 39.1929 51.7608 39.115 52.5446 38.9599C54.0309 38.6586 55.4822 38.2472 56.7178 37.3201C58.513 35.9758 58.9152 33.9999 57.7087 32.1225C56.4672 30.1872 54.6195 29.1905 52.3347 29.1558C48.9619 29.1043 45.589 29.126 42.2162 29.1478C41.7946 29.1505 41.3731 29.1532 40.9515 29.1558C40.8785 29.1558 40.7927 29.1427 40.7029 29.1291C40.3915 29.0817 40.0331 29.0273 40.0015 29.4861C39.9753 29.8897 40.3022 29.887 40.5954 29.8845C40.6936 29.8837 40.7881 29.8829 40.8641 29.8975C42.5078 30.2046 42.875 30.5696 42.8808 32.2384C42.883 32.7901 42.8853 33.3418 42.8877 33.8935C42.9043 37.7571 42.9208 41.6207 42.875 45.4844C42.8458 48.0223 42.3504 48.2657 40.3629 48.5148C40.1297 48.5438 39.9665 48.5844 39.9782 48.8741C39.9945 49.1607 40.1834 49.1697 40.3791 49.1791C40.3931 49.1797 40.4072 49.1804 40.4211 49.1812L40.4224 49.1813C40.5618 49.187 40.7013 49.1928 40.8408 49.1928H48.1032C48.2198 49.1928 48.3363 49.1928 48.4529 49.187C48.4663 49.1866 48.4797 49.1864 48.493 49.1861C48.712 49.1819 48.9192 49.178 48.9192 48.8393C48.9192 48.5675 48.7666 48.5486 48.5951 48.5274C48.5655 48.5237 48.5354 48.5199 48.5054 48.5148C46.4129 48.1382 46.1739 47.9644 46.0574 45.861C45.979 44.4757 45.9853 43.0846 45.9915 41.6939C45.9941 41.1184 45.9967 40.543 45.9933 39.9681C45.9874 39.3249 46.1623 39.209 46.7801 39.4003C46.8848 39.4349 46.9843 39.4824 47.0821 39.5291C47.1313 39.5527 47.1801 39.5759 47.2289 39.5973C49.3097 40.5244 50.5512 42.199 51.4255 44.2096C51.5426 44.4802 51.6541 44.7536 51.7657 45.027C52.0818 45.8017 52.3981 46.577 52.8418 47.2922C54.0192 49.1928 57.0326 49.836 58.9327 48.6133C58.787 48.1324 58.5189 47.9876 58.0001 48.1208C56.9685 48.3816 56.1874 47.976 55.6337 47.0952C55.2782 46.5216 55.0101 45.9132 54.7653 45.2874C54.6562 45.012 54.5527 44.7344 54.4491 44.4566C54.2148 43.8286 53.9802 43.1996 53.6811 42.593C53.0983 41.4109 52.2298 40.5823 50.9417 40.1999C50.4347 40.0479 49.93 39.8841 49.4262 39.7206ZM46.0029 33.1875C46.001 33.5571 45.9991 33.9265 45.9991 34.2954C45.9991 35.6107 45.9991 36.9261 45.9933 38.2414C45.9933 38.2701 45.9927 38.2988 45.9921 38.3271C45.9867 38.5738 45.9819 38.7964 46.3897 38.7861C46.9176 38.7727 47.4463 38.7769 47.9749 38.7812C49.051 38.7898 50.1272 38.7985 51.1982 38.6586C52.8244 38.4442 53.9143 37.5461 54.4389 35.9932C54.707 35.2051 54.7478 34.3939 54.6138 33.5943C54.2641 31.572 53.2557 29.6019 50.289 29.7816C49.0591 29.8569 47.8235 29.8221 46.5937 29.7874C46.0866 29.7758 45.9758 29.938 45.9875 30.4132C46.0124 31.3364 46.0077 32.2626 46.0029 33.1875Z" fill="#B41F26"/>
<path fill-rule="evenodd" clip-rule="evenodd" d="M99.2839 32.0704C97.6111 30.0018 95.4662 28.8023 93.2222 28.7733C90.8499 28.7791 89.183 29.4049 87.7316 30.5754C83.0455 34.3476 82.5034 42.1236 86.6009 46.6317C90.2321 50.624 95.8858 50.4444 99.2664 46.2319C102.478 42.2221 102.495 36.0627 99.2839 32.0704ZM88.8624 32.5803C87.9182 34.6547 87.5626 36.8507 87.5684 39.4408C87.5393 40.536 87.6908 41.9382 88.0347 43.3115C88.466 45.0266 89.0897 46.6664 90.3836 47.9528C91.8699 49.4246 93.636 49.413 95.1281 47.9586C95.8858 47.2169 96.4337 46.3304 96.8067 45.3511C98.3746 41.2313 98.3804 37.0941 96.8184 32.9685C96.3987 31.856 95.7809 30.8477 94.8483 30.0713C93.5078 28.953 92.0156 28.953 90.6692 30.0655C89.8532 30.7434 89.2995 31.6242 88.8624 32.5803Z" fill="#B41F26"/>
<path fill-rule="evenodd" clip-rule="evenodd" d="M23.1686 31.1548C20.9305 33.3451 19.9804 36.0801 19.9454 38.6412C19.9571 41.6601 20.639 43.9489 22.137 45.9653C25.3077 50.2242 30.874 50.7167 34.5868 47.0836C38.8475 42.9175 38.8067 35.2399 34.5052 31.1201C31.2179 27.9795 26.421 27.9737 23.1686 31.1548ZM25.0279 32.4296C24.0195 34.533 23.6931 36.7812 23.6349 39.0874C23.6582 40.5997 23.7981 42.0889 24.1944 43.549C24.6315 45.1947 25.2552 46.7591 26.5083 47.9818C27.9713 49.413 29.7374 49.4072 31.2062 47.9818C31.9348 47.2806 32.4593 46.4347 32.8382 45.5076C34.307 41.9092 34.4236 38.2298 33.4444 34.504C33.0306 32.9221 32.3835 31.4446 31.177 30.2799C29.7257 28.8776 27.9946 28.8892 26.5317 30.2799C25.8847 30.8941 25.4067 31.63 25.0279 32.4296Z" fill="#B41F26"/>
<path fill-rule="evenodd" clip-rule="evenodd" d="M49.7139 59.0363C49.7129 59.2414 49.7119 59.446 49.7119 59.6517V60.2659C49.7119 61.3147 49.7119 61.8419 49.9763 62.0853C50.2465 62.3339 50.7929 62.2864 51.8977 62.1954C52.5213 62.1432 52.9701 61.8999 53.1566 61.3031C53.3373 60.7236 53.3373 60.1326 52.8244 59.7154C52.5559 59.4929 52.6202 59.3984 52.7752 59.1713C52.7817 59.1615 52.7884 59.1516 52.7953 59.1418C53.4247 58.2204 52.9177 57.1775 51.8102 57.0963C51.5103 57.0744 51.2069 57.0745 50.9039 57.0746C50.6474 57.0747 50.3912 57.0748 50.1374 57.0616C49.7994 57.0442 49.7003 57.1775 49.7061 57.5019C49.7186 58.015 49.7162 58.5252 49.7139 59.0363ZM51.1633 59.1012C50.7145 59.2055 50.5454 59.049 50.5454 58.5391C50.5454 58.0582 50.6678 57.8554 51.1633 57.9365C51.2973 57.9597 51.443 57.9539 51.5829 57.9481C51.9793 57.9307 52.2182 58.1161 52.2241 58.5044C52.2299 58.881 52.0142 59.1012 51.6121 59.1012H51.1633ZM51.3089 61.3378C50.6328 61.3494 50.2889 60.7758 50.5745 60.1326C50.6328 59.9993 50.7202 59.9704 50.8426 59.9704C50.8971 59.9704 50.9514 59.9698 51.0058 59.9692C51.1146 59.968 51.2235 59.9663 51.3322 59.9704L51.3944 59.9732C51.8728 59.9941 52.3811 60.0167 52.3755 60.6831C52.3702 61.3372 51.8935 61.3372 51.4322 61.3372C51.3909 61.3372 51.3497 61.3372 51.3089 61.3378Z" fill="#B41F26"/>
<path fill-rule="evenodd" clip-rule="evenodd" d="M48.4179 16.8334C48.1323 16.4162 47.7302 16.1555 47.1998 15.9874C47.3134 15.893 47.4228 15.8075 47.5269 15.7261C47.7487 15.5527 47.9464 15.3981 48.109 15.2168C48.8609 14.3476 48.4296 12.8469 47.3338 12.7658C46.2281 12.6846 45.1166 12.7029 44.0054 12.7211C43.5293 12.729 43.0533 12.7368 42.5777 12.7368C43.5898 12.7881 43.5726 13.4352 43.5555 14.0778C43.5533 14.1605 43.5511 14.2432 43.5511 14.3244C43.5511 14.7105 43.5474 15.097 43.5436 15.4838C43.5349 16.3684 43.5263 17.2542 43.5627 18.1372C43.5919 18.873 43.4229 19.3482 42.601 19.3945C42.594 19.3945 42.5891 19.4219 42.5825 19.459C42.5781 19.4833 42.573 19.5118 42.5661 19.5394C43.0326 19.5394 43.499 19.5438 43.9653 19.5481C45.0139 19.5581 46.0616 19.5679 47.1065 19.5278C48.5928 19.4757 49.2573 18.0618 48.4179 16.8334ZM45.5794 12.9048C46.7918 12.9106 47.2406 13.2525 47.2464 14.1622C47.2522 15.182 46.6286 15.7151 45.5211 15.802C44.7984 15.86 44.5827 15.6282 44.676 14.9444C44.7103 14.6942 44.7022 14.4366 44.6942 14.1797C44.6899 14.0439 44.6857 13.9082 44.6877 13.774C44.6901 13.6366 44.6889 13.5208 44.6879 13.4232C44.6853 13.1728 44.6839 13.0421 44.7489 12.9744C44.8199 12.9004 44.9702 12.9015 45.2847 12.904C45.3702 12.9046 45.4679 12.9055 45.5794 12.9048ZM44.6844 17.6212C44.6808 17.5407 44.6772 17.4607 44.6935 17.3839C44.7226 17.2472 44.6997 17.0779 44.6773 16.9129C44.6371 16.6161 44.5987 16.333 44.8683 16.2772C45.5095 16.1439 46.2847 16.057 46.8501 16.6016C47.3805 17.1115 47.4854 17.7547 47.2522 18.4501C47.0307 19.1164 46.5295 19.3482 45.8592 19.3656L45.8254 19.3662C45.2629 19.3774 44.9786 19.3831 44.8347 19.2445C44.6877 19.1028 44.6877 18.8102 44.6877 18.2183V17.7258C44.6877 17.6909 44.6861 17.6559 44.6844 17.6212Z" fill="#B41F26"/>
</g>
<defs>
<clipPath id="clip0_725_1101">
<rect width="102" height="62" fill="white" transform="translate(0 0.369232)"/>
</clipPath>
</defs>
</svg>
