<svg width="81" height="77" viewBox="0 0 81 77" fill="none" xmlns="http://www.w3.org/2000/svg">
<path d="M78.5777 36.8753L71.6493 33.2871V14.707C71.6493 13.7753 71.1182 12.9129 70.2571 12.474L50.6146 2.2946C49.8179 1.8865 48.8764 1.8865 48.0798 2.2946L28.4453 12.4663C27.5923 12.9129 27.0532 13.7676 27.0532 14.6993V17.7177L24.6632 16.478C23.8666 16.0699 22.917 16.0699 22.1284 16.478L2.48587 26.6651C1.62485 27.1117 1.09375 27.9664 1.09375 28.8981V52.0828C1.09375 53.0145 1.62485 53.8769 2.48587 54.3158L22.1284 64.4952C22.5227 64.7031 22.9573 64.8032 23.3918 64.8032C23.8263 64.8032 24.2609 64.6954 24.6552 64.4952L35.3576 58.9435V62.293C35.3576 63.2247 35.8887 64.0871 36.7578 64.5337L56.3923 74.7131C56.7866 74.9133 57.2211 75.0211 57.6557 75.0211C58.0902 75.0211 58.5247 74.9133 58.919 74.7131L78.5535 64.5337C79.4065 64.0871 79.9457 63.2324 79.9457 62.293V39.116C79.9698 38.1766 79.4307 37.3219 78.5777 36.8753ZM55.9014 26.9654L52.0147 28.9828V26.411L55.5554 24.5707V25.7411C55.5554 26.18 55.6841 26.5958 55.9014 26.9654ZM57.6717 31.8318L71.7217 39.116L66.797 41.6647L53.5839 33.9416L57.6717 31.8318ZM66.3383 30.5305L60.2387 27.3735C60.633 26.9269 60.8825 26.3648 60.8825 25.7334V21.8141L66.3383 18.9882V30.5305ZM49.3512 7.4228L63.4092 14.707L58.4845 17.2557L45.2714 9.5326L49.3512 7.4228ZM39.8558 12.3431L53.085 20.0662L49.3593 21.9989L35.3013 14.707L39.8558 12.3431ZM23.3918 21.6139L27.0451 23.5158L37.4418 28.8981L32.5251 31.4468L27.0451 28.2513L19.304 23.7314L23.3918 21.6139ZM23.3999 36.19L9.34186 28.8981L13.9045 26.5342L27.0532 34.2111L27.1256 34.2496L27.0532 34.2881L23.3999 36.19ZM26.0553 57.9887V40.5944L27.8257 39.6781L29.604 38.7618V39.9322C29.604 40.2479 29.6684 40.5482 29.7811 40.8177C30.1593 41.7879 31.1249 42.4655 32.2676 42.4655C32.4687 42.4655 32.6619 42.4347 32.847 42.4039C34.0299 42.1498 34.9231 41.1334 34.9231 39.9245V35.9975L40.3789 33.1716V35.0042L36.7658 36.883C35.9048 37.3296 35.3737 38.1843 35.3737 39.1237V53.1685L26.0553 57.9887ZM57.6717 46.4002L43.6138 39.116L48.1764 36.7444L61.3975 44.4675L57.6717 46.4002ZM74.6427 60.7838L60.3192 68.2066V50.8123L63.8679 48.972V50.1424C63.8679 51.5515 65.0588 52.6834 66.5234 52.6834C67.996 52.6834 69.1789 51.5438 69.1789 50.1424V46.2231L74.6347 43.3972V60.7838H74.6427Z" fill="#B41F26"/>
</svg>
