<svg width="71" height="67" viewBox="0 0 71 67" fill="none" xmlns="http://www.w3.org/2000/svg">
<g clip-path="url(#clip0_822_1069)">
<path d="M29.8639 50.5046C25.7608 50.5046 22.4279 53.6938 22.4279 57.62C22.4279 61.5462 25.7608 64.7421 29.8639 64.7421C33.967 64.7421 37.2999 61.5462 37.2999 57.62C37.3069 53.7005 33.974 50.5046 29.8639 50.5046ZM29.8639 59.563C28.7506 59.563 27.8333 58.692 27.8333 57.6267C27.8333 56.5614 28.7506 55.6837 29.8639 55.6837C30.9772 55.6837 31.8944 56.5614 31.8944 57.6267C31.9014 58.692 30.9842 59.563 29.8639 59.563ZM52.4169 50.5046C48.3138 50.5046 44.9809 53.6938 44.9809 57.62C44.9809 61.5462 48.3208 64.7421 52.4169 64.7421C56.52 64.7421 59.8529 61.5462 59.8529 57.62C59.8529 53.7005 56.52 50.5046 52.4169 50.5046ZM52.4169 59.563C51.3036 59.563 50.3864 58.692 50.3864 57.6267C50.3864 56.5614 51.3036 55.6837 52.4169 55.6837C53.5302 55.6837 54.4475 56.5614 54.4475 57.6267C54.4475 58.692 53.5302 59.563 52.4169 59.563ZM68.8573 21.1452C68.3392 20.502 67.548 20.1268 66.7007 20.1268H52.5359C51.0375 20.1268 49.8332 21.2792 49.8332 22.713C49.8332 24.1468 51.0445 25.3059 52.5359 25.3059H63.1508L57.7103 44.1664H25.4667L20.0682 25.3059H35.4023C36.9007 25.3059 38.1051 24.1535 38.1051 22.713C38.1051 21.2792 36.8937 20.1268 35.4023 20.1268H18.5908L16.4693 12.7099C16.1542 11.6312 15.1529 10.854 13.9766 10.8071L3.60682 10.385C2.0384 10.3582 0.848082 11.4302 0.792067 12.8573C0.722049 14.2844 1.88436 15.4904 3.36876 15.5574L11.778 15.9058L13.8716 23.2222C13.8856 23.2825 13.8576 23.3428 13.8786 23.4031L20.3623 45.8682L20.8104 47.436C20.8805 47.6906 21.0065 47.9184 21.1465 48.1328C21.1605 48.1529 21.1675 48.1797 21.1885 48.2132C21.2796 48.3405 21.4056 48.4343 21.5246 48.5415C21.6156 48.6286 21.6927 48.7358 21.7977 48.8095C21.9027 48.8899 22.0288 48.9301 22.1548 48.9904C22.2878 49.0574 22.4139 49.1512 22.5609 49.1981C22.834 49.2852 23.1281 49.3388 23.4291 49.3388H59.7899C61.0082 49.3388 62.0795 48.5616 62.3946 47.4293L69.3264 23.3964C69.5295 22.6259 69.3685 21.7951 68.8573 21.1452ZM31.1522 29.6944C30.0949 30.7061 30.0949 32.3409 31.1522 33.3526L39.3654 41.205C39.8695 41.6874 40.5557 41.9688 41.2769 41.9688C41.9981 41.9688 42.6843 41.6874 43.1884 41.205L51.3946 33.3526C52.4449 32.3409 52.4449 30.7061 51.3946 29.6944C50.3303 28.6894 48.6219 28.6894 47.5716 29.6944L43.8816 33.2186C44.5118 21.4668 52.5709 11.1555 64.4671 7.30301C65.8815 6.84741 66.6377 5.37341 66.1686 4.02001C65.6855 2.66661 64.145 1.93631 62.7377 2.39191C48.7199 6.93451 39.1483 19.1017 38.4272 32.9841L34.9892 29.7011C33.9319 28.6894 32.2095 28.6894 31.1522 29.6944Z" fill="#B41F26"/>
</g>
<defs>
<clipPath id="clip0_822_1069">
<rect width="70.0188" height="67" fill="white" transform="translate(0.0849609)"/>
</clipPath>
</defs>
</svg>
