<svg width="73" height="31" viewBox="0 0 73 31" fill="none" xmlns="http://www.w3.org/2000/svg">
<path d="M28.7297 30.9213C26.7925 30.4505 25.4251 28.7824 25.3999 26.859C25.3868 25.8602 25.5806 25.2019 26.1117 24.4407C27.6544 22.2296 30.933 21.9195 32.8842 23.8001C33.8069 24.6894 34.0678 25.3492 34.0694 26.7974C34.0706 27.9083 34.0358 28.0933 33.7148 28.6803C32.9726 30.0376 31.6084 30.9007 30.065 30.9893C29.5954 31.0162 28.9945 30.9858 28.7297 30.9213ZM30.5391 27.89C31.2092 27.438 31.3199 26.3929 30.7522 25.8791C29.7633 24.9842 28.268 25.6546 28.4293 26.9206C28.5518 27.8822 29.741 28.4286 30.5391 27.89ZM58.802 30.8854C57.4778 30.5242 56.3159 29.4762 55.8169 28.193C55.5009 27.3804 55.5798 25.7754 55.9738 25.0018C56.4394 24.0875 57.0899 23.4558 58.0205 23.0144C58.7849 22.6517 58.991 22.6088 59.9673 22.6088C60.9431 22.6088 61.1501 22.6519 61.9138 23.0137C63.4848 23.758 64.3433 25.0975 64.3391 26.7974C64.3346 28.5705 63.381 29.9722 61.6887 30.6933C60.9563 31.0054 59.578 31.0971 58.802 30.8854V30.8854ZM60.8936 27.7315C61.2521 27.4228 61.3112 27.2907 61.3112 26.7974C61.3112 26.3041 61.2521 26.172 60.8936 25.8633C60.5808 25.5941 60.3484 25.5039 59.9684 25.5039C59.5883 25.5039 59.356 25.5941 59.0432 25.8633C58.6846 26.172 58.6256 26.3041 58.6256 26.7974C58.6256 27.2907 58.6846 27.4228 59.0432 27.7315C59.356 28.0007 59.5883 28.0909 59.9684 28.0909C60.3484 28.0909 60.5808 28.0007 60.8936 27.7315ZM16.6142 23.5963V21.4385H16.1605C15.1395 21.4385 14.6937 20.1897 15.4534 19.4579L15.8272 19.0978H19.8719C24.3144 19.0978 24.4925 19.0715 24.7931 18.3726C24.9877 17.92 24.8717 17.3514 24.5228 17.0471C24.2778 16.8334 23.8711 16.8147 18.2023 16.7571L12.1437 16.6955L11.7921 16.3567C11.3015 15.8839 11.3015 15.1664 11.7922 14.6936L12.1438 14.3548L22.4471 14.2932L32.7504 14.2316L33.059 13.886C33.4671 13.4289 33.4671 12.8168 33.059 12.3598L32.7504 12.0141L16.9486 11.9525L1.1468 11.8909L0.877844 11.6318C0.729922 11.4893 0.578436 11.154 0.541212 10.8866C0.485105 10.4837 0.532265 10.3333 0.81696 10.0074L1.16039 9.61426L20.0107 9.58225L38.861 9.55025L39.2127 9.21147C39.7035 8.73866 39.7035 8.02117 39.2127 7.54835L38.861 7.20956L23.869 7.14797C15.6234 7.11409 8.79919 7.03802 8.70408 6.97893C8.36531 6.76844 8.14958 6.05148 8.29622 5.62346C8.58928 4.76807 8.07379 4.80728 19.0259 4.80728C25.8384 4.80728 28.9735 4.76602 29.1841 4.67359C29.9591 4.33342 30.1077 3.22042 29.445 2.71832C29.1207 2.47261 28.9634 2.4666 22.8594 2.4666C16.1996 2.4666 15.9206 2.44363 15.6014 1.86916C15.3613 1.43696 15.4375 0.784413 15.7719 0.409968L16.0805 0.0643153L32.781 0.0321576L49.4815 0V10.9656V21.9312H50.2489H51.0162V13.6772V5.42325H56.57H62.1239L62.3832 5.7408C62.6115 6.02033 64.7186 8.15174 69.4985 12.9381C70.2766 13.7173 71.2987 14.7429 71.7697 15.2172L72.6262 16.0795L72.6278 20.9149L72.6294 25.7502L69.2084 25.7501L65.7874 25.75L65.5683 25.0319C65.2612 24.0251 64.4472 22.9091 63.5417 22.2534C61.1484 20.5203 57.9333 20.7369 55.819 22.7736C55.0815 23.484 54.4112 24.5889 54.2663 25.3328L54.1849 25.7502H44.8776H35.5702L35.4889 25.3327C35.2338 24.023 33.7434 22.2952 32.3023 21.6385C29.039 20.1514 25.1345 21.8433 24.0928 25.1959L23.9397 25.6887L20.277 25.7213L16.6142 25.754V23.5963ZM65.5753 11.8601C63.2338 9.50559 61.2589 7.53842 61.1867 7.48864C61.1145 7.43886 59.3721 7.39728 57.3147 7.39624L53.574 7.39436V11.7677V16.1411H61.7033H69.8326L65.5753 11.8601Z" fill="#B41F26"/>
</svg>
