<svg width="55" height="57" viewBox="0 0 55 57" fill="none" xmlns="http://www.w3.org/2000/svg">
<g clip-path="url(#clip0_822_1042)">
<path d="M53.3962 25.85C53.0264 25.3471 52.6438 24.8268 52.5829 24.4229C52.5169 23.993 52.7285 23.3616 52.9333 22.7518C53.2312 21.8676 53.5672 20.8653 53.265 19.9099C52.9578 18.9362 52.1013 18.3221 51.3455 17.7801C50.8377 17.4162 50.3138 17.0401 50.1285 16.6684C49.9389 16.2879 49.9499 15.6244 49.96 14.9834C49.9753 14.0436 49.9922 12.9796 49.4124 12.1614C48.8301 11.3397 47.8348 11.0279 46.9572 10.7534C46.3622 10.5676 45.746 10.3739 45.4557 10.076C45.1646 9.77718 44.9767 9.14486 44.7956 8.53426C44.5281 7.63356 44.2243 6.61212 43.4228 6.01455C42.6264 5.41958 41.5887 5.43608 40.6738 5.45259C40.0492 5.46475 39.4018 5.4743 39.0319 5.27974C38.6697 5.09039 38.3032 4.55188 37.9486 4.03074C37.4213 3.25511 36.8229 2.37699 35.8742 2.06083C34.9423 1.75076 33.9639 2.09558 33.1015 2.39958C32.5074 2.60977 31.8904 2.82604 31.4731 2.76003C31.0796 2.69663 30.5726 2.30403 30.0817 1.92534C29.3437 1.35382 28.5058 0.705872 27.5003 0.705872C26.4949 0.705872 25.657 1.35382 24.9181 1.92534C24.4281 2.3049 23.9211 2.69663 23.5275 2.76003C23.1103 2.82865 22.4941 2.60977 21.8992 2.39958C21.0367 2.09471 20.06 1.74989 19.1299 2.0591C18.1811 2.37526 17.5827 3.25338 17.0546 4.02901C16.7 4.54928 16.3335 5.08779 15.9713 5.27714C15.6006 5.47169 14.9531 5.45953 14.3294 5.44998C13.4136 5.43174 12.3768 5.41611 11.5796 6.01194C10.7789 6.60952 10.4751 7.63095 10.2076 8.53165C10.0265 9.14312 9.83776 9.77457 9.54746 10.0734C9.25632 10.3721 8.64017 10.565 8.04434 10.7517C7.16667 11.0262 6.1722 11.338 5.58906 12.1597C5.00931 12.977 5.02624 14.0418 5.04147 14.9816C5.05163 15.6235 5.06178 16.2862 4.87305 16.6675C4.68854 17.0384 4.1638 17.4145 3.65684 17.7784C2.90104 18.3204 2.04538 18.9345 1.73646 19.9081C1.43431 20.8644 1.77116 21.8668 2.06823 22.7518C2.27305 23.3624 2.48548 23.993 2.41947 24.4229C2.35768 24.8268 1.97598 25.3471 1.60612 25.85C1.04837 26.6083 0.416992 27.4681 0.416992 28.5C0.416992 29.5318 1.04837 30.3917 1.60527 31.15C1.97513 31.6529 2.35684 32.174 2.41862 32.5779L4.09102 32.3078C3.96406 31.4748 3.45202 30.7782 2.9569 30.1042C2.54049 29.5371 2.1097 28.9508 2.1097 28.5C2.1097 28.0492 2.54049 27.4629 2.9569 26.8957C3.45202 26.2217 3.96322 25.5252 4.09102 24.6922C4.2222 23.8358 3.94036 22.9968 3.66784 22.1855C3.44694 21.528 3.21842 20.8471 3.34622 20.4449C3.4791 20.0254 4.06224 19.6076 4.62591 19.2029C5.30299 18.7173 6.00378 18.2153 6.3804 17.4579C6.76126 16.6918 6.74772 15.8085 6.73333 14.9538C6.72233 14.2538 6.71133 13.5311 6.95762 13.1828C7.20729 12.8311 7.88353 12.6191 8.53861 12.4141C9.33249 12.1649 10.1543 11.9078 10.7442 11.3024C11.3341 10.697 11.5846 9.85448 11.8267 9.03976C12.0264 8.36836 12.2321 7.67351 12.5757 7.41728C12.9151 7.16366 13.6201 7.17495 14.3014 7.18711C15.1342 7.20101 15.9941 7.21578 16.7415 6.82492C17.4795 6.43841 17.9687 5.7201 18.4426 5.02438C18.8362 4.44592 19.2441 3.84834 19.6529 3.71198C20.0439 3.57996 20.7075 3.81621 21.3482 4.04203C22.1395 4.32171 22.9563 4.61008 23.7908 4.47632C24.6016 4.34603 25.2812 3.82055 25.938 3.31244C26.4898 2.8851 27.0611 2.443 27.5003 2.443C27.9396 2.443 28.5109 2.8851 29.0635 3.31244C29.7203 3.82055 30.3991 4.34516 31.2107 4.47632C32.0436 4.60834 32.8628 4.32171 33.6533 4.04203C34.2949 3.81534 34.9567 3.57996 35.3503 3.71198C35.7582 3.84834 36.1661 4.44592 36.5606 5.02438C37.0337 5.71924 37.5237 6.43841 38.2609 6.82492C39.0074 7.21578 39.8715 7.20362 40.7009 7.18711C41.3831 7.17669 42.0881 7.16366 42.4275 7.41728C42.7702 7.67351 42.9759 8.36749 43.1765 9.03976C43.4186 9.85448 43.6691 10.6979 44.259 11.3032C44.848 11.9086 45.6699 12.1657 46.4637 12.4141C47.1171 12.6191 47.7942 12.8311 48.0439 13.1828C48.291 13.5311 48.2792 14.2538 48.2682 14.9538C48.2546 15.8085 48.2411 16.6918 48.6219 17.4579C48.9986 18.2153 49.6985 18.7173 50.3756 19.2029C50.9393 19.6076 51.5216 20.0254 51.6553 20.4458C51.7822 20.8479 51.5546 21.528 51.3337 22.1855C51.0611 22.9968 50.7801 23.8358 50.9105 24.6922C51.0383 25.5243 51.5503 26.2217 52.0446 26.8949C52.4602 27.4629 52.891 28.0492 52.891 28.5C52.891 28.9508 52.4602 29.5371 52.0438 30.1051C51.5495 30.7782 51.0383 31.4748 50.9096 32.3078L52.5829 32.5779C52.6438 32.174 53.0264 31.6538 53.3962 31.15C53.9523 30.3917 54.5837 29.5318 54.5837 28.5C54.5837 27.4681 53.9523 26.6083 53.3962 25.85ZM46.462 44.5867C45.6682 44.8351 44.8464 45.0922 44.2573 45.6976C43.6674 46.3021 43.4169 47.1455 43.174 47.9602C42.9751 48.6316 42.7686 49.3256 42.4249 49.5818C42.0864 49.8346 41.3772 49.8224 40.7001 49.812C39.8673 49.7981 39.0074 49.7842 38.2592 50.1751C37.522 50.5616 37.0328 51.2799 36.5597 51.9747C36.1653 52.5532 35.7582 53.1508 35.3486 53.288C34.9559 53.42 34.294 53.1855 33.6525 52.9579C32.862 52.6791 32.0436 52.3951 31.2099 52.5237C30.3982 52.6548 29.7195 53.1803 29.0635 53.6875C28.5109 54.1149 27.9396 54.557 27.5003 54.557C27.0611 54.557 26.4898 54.1149 25.9363 53.6875C25.2803 53.1803 24.6007 52.6557 23.7899 52.5237C22.9579 52.3951 22.1378 52.6791 21.3473 52.9579C20.7066 53.1846 20.0448 53.42 19.6512 53.288C19.2424 53.1516 18.8345 52.5532 18.441 51.9747C17.967 51.279 17.4778 50.5607 16.7406 50.1742C15.9941 49.7833 15.1326 49.7972 14.3014 49.812C13.6193 49.8207 12.9143 49.8354 12.5749 49.581C12.2321 49.3247 12.0256 48.6307 11.8258 47.9593C11.5829 47.1446 11.3324 46.3013 10.7425 45.6967C10.1526 45.0913 9.33164 44.8342 8.53691 44.585C7.88268 44.3809 7.2056 44.1689 6.95677 43.8163L5.58822 44.8395C6.17051 45.6603 7.16582 45.9721 8.04264 46.2465C8.63848 46.4333 9.25462 46.6261 9.54577 46.9249C9.83691 47.2237 10.0248 47.8551 10.2068 48.4666C10.4742 49.3673 10.7781 50.3879 11.5787 50.9854C12.3751 51.5821 13.4128 51.5622 14.3294 51.5474C14.9531 51.5404 15.6006 51.5266 15.9713 51.7202C16.3327 51.9096 16.6992 52.4481 17.0538 52.9692C17.5819 53.7449 18.1803 54.623 19.129 54.94C20.0592 55.2475 21.0367 54.9053 21.8992 54.5995C22.4941 54.3902 23.1103 54.1661 23.5275 54.2399C23.9211 54.3025 24.4281 54.6951 24.9181 55.0746C25.657 55.6462 26.4949 56.2941 27.5003 56.2941C28.5058 56.2941 29.3437 55.6462 30.0826 55.0755C30.5726 54.6959 31.0804 54.3034 31.474 54.2408C31.887 54.1661 32.5074 54.3902 33.1023 54.6004C33.9656 54.9061 34.9432 55.2518 35.8716 54.9409C36.8204 54.6256 37.4188 53.7457 37.9469 52.9701C38.3015 52.4498 38.6688 51.9113 39.0294 51.722C39.4001 51.5266 40.045 51.537 40.6713 51.5491C41.5811 51.5639 42.623 51.5821 43.4211 50.9872C44.2209 50.3896 44.5247 49.369 44.7922 48.4683C44.9742 47.8577 45.162 47.2245 45.4532 46.9266C45.7443 46.6278 46.3596 46.435 46.9546 46.2491C47.8323 45.9747 48.8276 45.662 49.4099 44.8403L48.0413 43.8189C47.7934 44.1698 47.1163 44.3809 46.462 44.5867Z" fill="#B41F26"/>
<path d="M7.1875 40.6599V38.9228C7.1875 38.4425 6.80833 38.0542 6.34115 38.0542H4.64844V39.7914H5.49479V40.6599C5.49479 41.1394 5.11478 41.5285 4.64844 41.5285C4.1821 41.5285 3.80208 41.1394 3.80208 40.6599V35.4485C3.80208 34.9691 4.1821 34.58 4.64844 34.58C5.11478 34.58 5.49479 34.9691 5.49479 35.4485V36.3171H7.1875V35.4485C7.1875 34.0119 6.04831 32.8428 4.64844 32.8428C3.24857 32.8428 2.10938 34.0119 2.10938 35.4485V40.6599C2.10938 42.0965 3.24857 43.2656 4.64844 43.2656C6.04831 43.2656 7.1875 42.0965 7.1875 40.6599ZM8.03385 32.8428V40.6599C8.03385 42.0965 9.17305 43.2656 10.5729 43.2656C11.9728 43.2656 13.112 42.0965 13.112 40.6599V32.8428H11.4193V40.6599C11.4193 41.1394 11.0393 41.5285 10.5729 41.5285C10.1066 41.5285 9.72656 41.1394 9.72656 40.6599V32.8428H8.03385ZM13.9583 35.4485V43.2656H15.651V41.5285H17.3438V43.2656H19.0365V35.4485C19.0365 34.0119 17.8973 32.8428 16.4974 32.8428C15.0975 32.8428 13.9583 34.0119 13.9583 35.4485ZM17.3438 35.4485V39.7914H15.651V35.4485C15.651 34.9691 16.0311 34.58 16.4974 34.58C16.9637 34.58 17.3438 34.9691 17.3438 35.4485ZM25.8073 35.4485V43.2656H27.5V41.5285H29.1927V43.2656H30.8854V35.4485C30.8854 34.0119 29.7462 32.8428 28.3464 32.8428C26.9465 32.8428 25.8073 34.0119 25.8073 35.4485ZM28.3464 34.58C28.8135 34.58 29.1927 34.9691 29.1927 35.4485V39.7914H27.5V35.4485C27.5 34.9691 27.88 34.58 28.3464 34.58ZM19.8828 33.7114V38.0508C19.8828 38.0534 19.8828 38.0551 19.8828 38.0568V43.2656H21.5755V40.5305L23.4536 42.9399C23.6144 43.1458 23.8573 43.2656 24.1146 43.2656H24.9609V41.5285H24.5208L22.4608 38.8855C23.8759 38.657 24.9609 37.3976 24.9609 35.8828C24.9609 34.2065 23.6322 32.8428 21.9987 32.8428H20.7292C20.262 32.8428 19.8828 33.2311 19.8828 33.7114ZM21.5755 34.58H21.9987C22.6986 34.58 23.2682 35.1645 23.2682 35.8828C23.2682 36.6011 22.6986 37.1857 21.9987 37.1857H21.5755V34.58ZM35.1172 37.8875L33.3644 33.3892C33.2129 33.0009 32.81 32.7846 32.4182 32.8585C32.0195 32.9366 31.7318 33.2954 31.7318 33.7114V43.2656H33.4245V38.221L35.1773 42.7193C35.3085 43.0546 35.6233 43.2656 35.9627 43.2656C36.016 43.2656 36.0702 43.2604 36.1235 43.25C36.5221 43.1718 36.8099 42.8131 36.8099 42.3971V32.8428H35.1172V37.8875ZM41.0417 34.58H42.7344V32.8428H37.6563V34.58H39.349V43.2656H41.0417V34.58ZM47.8125 34.58V32.8428H44.4271C43.9591 32.8428 43.5807 33.2311 43.5807 33.7114V42.3971C43.5807 42.8774 43.9591 43.2656 44.4271 43.2656H47.8125V41.5285H45.2734V38.9228H47.8125V37.1857H45.2734V34.58H47.8125ZM48.6589 33.7114V42.3971C48.6589 42.8774 49.0372 43.2656 49.5052 43.2656H52.8906V41.5285H50.3516V38.9228H52.8906V37.1857H50.3516V34.58H52.8906V32.8428H49.5052C49.0372 32.8428 48.6589 33.2311 48.6589 33.7114Z" fill="#B41F26"/>
<path d="M48.6595 28.5C48.6595 16.5268 39.1676 6.78583 27.5007 6.78583C15.8337 6.78583 6.3418 16.5268 6.3418 28.5C6.3418 29.3746 6.39935 30.2875 6.51191 31.2134L8.19108 30.998C8.08698 30.1433 8.03451 29.3025 8.03451 28.5C8.03451 17.4848 16.7672 8.52296 27.5007 8.52296C38.235 8.52296 46.9668 17.4848 46.9668 28.5C46.9668 29.3025 46.9143 30.1433 46.8094 30.998L48.4885 31.2134C48.6028 30.2875 48.6595 29.3746 48.6595 28.5ZM40.4219 45.6898L39.3869 44.3157C35.9515 47.0378 31.8425 48.477 27.5007 48.477C23.1597 48.477 19.0498 47.0378 15.6153 44.3157L14.5802 45.6898C18.3143 48.6499 22.7814 50.2141 27.5007 50.2141C32.2199 50.2141 36.6878 48.6499 40.4219 45.6898Z" fill="#B41F26"/>
<path d="M19.0365 18.9458H17.3438V20.6829H18.1901V29.3686H19.8828V19.8143C19.8828 19.3349 19.5036 18.9458 19.0365 18.9458ZM23.6914 18.9458C22.0579 18.9458 20.7292 20.3094 20.7292 21.9858V26.3286C20.7292 28.0049 22.0579 29.3686 23.6914 29.3686C25.3249 29.3686 26.6536 28.0049 26.6536 26.3286V21.9858C26.6536 20.3094 25.3249 18.9458 23.6914 18.9458ZM24.9609 26.3286C24.9609 27.0469 24.3913 27.6314 23.6914 27.6314C22.9915 27.6314 22.4219 27.0469 22.4219 26.3286V21.9858C22.4219 21.2674 22.9915 20.6829 23.6914 20.6829C24.3913 20.6829 24.9609 21.2674 24.9609 21.9858V26.3286ZM30.4622 18.9458C28.8288 18.9458 27.5 20.3094 27.5 21.9858V26.3286C27.5 28.0049 28.8288 29.3686 30.4622 29.3686C32.0957 29.3686 33.4245 28.0049 33.4245 26.3286V21.9858C33.4245 20.3094 32.0957 18.9458 30.4622 18.9458ZM31.7318 26.3286C31.7318 27.0469 31.1622 27.6314 30.4622 27.6314C29.7623 27.6314 29.1927 27.0469 29.1927 26.3286V21.9858C29.1927 21.2674 29.7623 20.6829 30.4622 20.6829C31.1622 20.6829 31.7318 21.2674 31.7318 21.9858V26.3286Z" fill="#B41F26"/>
<path d="M36.0518 28.1117L39.4372 21.1632L40.9513 21.9397L37.5659 28.8882L36.0518 28.1117Z" fill="#B41F26"/>
<path d="M36.8099 22.42H35.1172V24.1571H36.8099V22.42Z" fill="#B41F26"/>
<path d="M41.888 25.8943H40.1953V27.6314H41.888V25.8943Z" fill="#B41F26"/>
</g>
<defs>
<clipPath id="clip0_822_1042">
<rect width="54.1667" height="55.5882" fill="white" transform="translate(0.416992 0.705872)"/>
</clipPath>
</defs>
</svg>
