<svg width="58" height="36" viewBox="0 0 58 36" fill="none" xmlns="http://www.w3.org/2000/svg">
<path d="M12.3544 34.9124C12.3792 34.7221 12.4422 34.4046 12.4944 34.2068C12.5466 34.009 12.5894 33.7514 12.5894 33.6343C12.5894 33.5173 12.6203 33.4032 12.6582 33.3808C12.6961 33.3584 12.727 33.1986 12.727 33.0256C12.727 32.8527 12.7503 32.6892 12.7787 32.6624C12.8253 32.6183 12.9447 32.0331 13.0485 31.3389C13.0702 31.194 13.1098 31.0606 13.1365 31.0425C13.1632 31.0244 13.2222 30.7724 13.2675 30.4826C13.3129 30.1928 13.3667 29.8519 13.387 29.7251C13.4073 29.5983 13.4502 29.4353 13.4824 29.3628C13.5375 29.2384 13.6666 28.5857 13.7364 28.0784C13.7539 27.9516 13.7947 27.7885 13.8272 27.7161C13.8597 27.6436 13.9051 27.4806 13.9282 27.3538C14.0734 26.5536 14.1446 26.239 14.1899 26.1955C14.2183 26.1684 14.2412 26.0844 14.2409 26.0089C14.2401 25.8119 14.4727 24.9536 14.534 24.9276C14.5624 24.9155 14.5857 24.834 14.5857 24.7464C14.5857 24.6589 14.6133 24.5872 14.647 24.5872C14.6808 24.5872 14.7278 24.5131 14.7516 24.4226C14.7754 24.332 14.8252 24.2579 14.8623 24.2579C14.8995 24.2579 14.9298 24.227 14.9298 24.1892C14.9298 24.1267 15.3213 23.6839 15.5329 23.5071C15.5806 23.4672 15.7396 23.3234 15.8862 23.1875C16.0328 23.0517 16.1732 22.9405 16.1982 22.9405C16.2233 22.9405 16.3273 22.8664 16.4294 22.7759C16.5314 22.6853 16.6514 22.6112 16.696 22.6112C16.7405 22.6112 16.7873 22.5859 16.7999 22.5549C16.826 22.4909 17.7844 21.9206 18.1996 21.7219C18.351 21.6495 18.4904 21.5754 18.5094 21.5573C18.5478 21.5205 18.9973 21.3115 19.9205 20.9012C20.2613 20.7497 20.5938 20.5983 20.6595 20.5646C20.7253 20.5309 20.826 20.5034 20.8833 20.5034C20.9406 20.5034 20.9875 20.4737 20.9875 20.4375C20.9875 20.4013 21.027 20.3716 21.0754 20.3716C21.1705 20.3716 21.7289 20.1029 22.2265 19.8178C22.3969 19.7202 22.6215 19.6057 22.7256 19.5634C22.8297 19.5211 22.9149 19.4633 22.9149 19.435C22.9149 19.4067 22.962 19.3836 23.0195 19.3836C23.077 19.3836 23.2468 19.3095 23.3967 19.2189C23.5467 19.1283 23.715 19.0542 23.7707 19.0542C23.8999 19.0542 24.0154 18.663 24.0159 18.2236L24.0163 17.8869L25.2554 17.7113V17.3321C25.2553 16.8134 25.1312 16.2877 25.0087 16.2877C24.955 16.2877 24.9112 16.2581 24.9112 16.2218C24.9112 16.1856 24.8799 16.156 24.8417 16.156C24.7339 16.156 24.3605 15.8153 24.3605 15.7169C24.3605 15.6686 24.337 15.629 24.3084 15.629C24.2199 15.629 23.8786 14.8149 23.8786 14.6039C23.8786 14.5199 23.8476 14.4328 23.8098 14.4104C23.7719 14.3881 23.7409 14.1961 23.7409 13.9838C23.7409 13.5199 23.6963 13.3895 23.5376 13.3895C23.3402 13.3895 22.9957 13.1956 22.8575 13.0067C22.6985 12.7894 22.6469 12.5897 22.5687 11.8893C22.5352 11.5895 22.4851 11.309 22.4573 11.266C22.4055 11.1857 22.3158 10.7866 22.2487 10.3373C22.2267 10.1907 22.2431 10.0538 22.2875 10.0113C22.3297 9.97095 22.3642 9.89061 22.3642 9.83275C22.3642 9.77489 22.4881 9.61178 22.6395 9.47028C22.9495 9.18066 22.9516 9.17375 22.8181 8.88741C22.7649 8.77325 22.6687 8.53164 22.6043 8.3505C22.5399 8.16936 22.461 7.96187 22.4289 7.88941C22.2436 7.47127 22.2169 7.17644 22.2527 5.94627C22.2931 4.55708 22.3471 3.90919 22.4311 3.80551C22.4605 3.76929 22.5057 3.59954 22.5315 3.4283C22.5574 3.25706 22.6078 3.0997 22.6435 3.0786C22.6792 3.0575 22.7083 2.96789 22.7083 2.87946C22.7083 2.79102 22.736 2.71867 22.7697 2.71867C22.8035 2.71867 22.8505 2.64471 22.8742 2.55431C22.8979 2.46392 23.0639 2.24743 23.2431 2.07322C23.5651 1.76007 23.9537 1.59889 24.3864 1.59889C24.5295 1.59889 24.5482 1.56817 24.5482 1.33275C24.5482 1.14456 24.5952 1.01868 24.7088 0.902949C24.9079 0.700184 25.4349 0.413243 25.6081 0.413243C25.6791 0.413243 25.7371 0.390537 25.7371 0.362784C25.7371 0.318484 26.3095 0.178153 27.045 0.0421133C27.4153 -0.0263645 29.3002 -0.00719931 29.7641 0.0697552C30.2965 0.158073 30.8286 0.275024 31.0032 0.342085C31.0789 0.371179 31.2581 0.443551 31.4013 0.502919C31.5446 0.562283 31.7072 0.610853 31.7627 0.610853C31.8182 0.610853 31.8636 0.637037 31.8636 0.66904C31.8636 0.701042 31.9179 0.744645 31.9841 0.765934C32.2054 0.83704 32.8334 1.27547 33.1819 1.60228C33.5056 1.9057 33.9144 2.60836 34.0423 3.08098C34.0619 3.15343 34.1034 3.272 34.1346 3.34445C34.2826 3.68855 34.3762 4.96425 34.3762 6.63792C34.3762 7.61608 34.3607 8.56322 34.3418 8.74264C34.3085 9.05764 34.3145 9.07125 34.5139 9.1368C34.8117 9.23471 35.0196 9.48967 35.0714 9.82059C35.1212 10.1379 35.0605 10.8709 34.9655 11.1017C34.9322 11.1826 34.8517 11.4266 34.7866 11.644C34.7215 11.8613 34.6413 12.0674 34.6083 12.1018C34.5753 12.1362 34.5483 12.23 34.5483 12.3104C34.5483 12.3907 34.525 12.4662 34.4967 12.4783C34.4683 12.4904 34.3831 12.6188 34.3074 12.7638C34.1609 13.044 33.9499 13.252 33.8083 13.2556C33.761 13.2568 33.7222 13.2906 33.7222 13.3308C33.7222 13.3746 33.6573 13.3882 33.5596 13.3647C33.406 13.3278 33.3947 13.3466 33.3555 13.7034C33.2753 14.4348 33.1606 15.0699 33.0976 15.1317C33.0625 15.1661 33.0339 15.2625 33.0339 15.3458C33.0339 15.4291 33.0029 15.4973 32.965 15.4973C32.9272 15.4973 32.896 15.5343 32.8959 15.5796C32.8954 15.6921 32.488 16.1032 32.2707 16.2105C32.1052 16.2923 32.0971 16.3181 32.1466 16.6057C32.1758 16.775 32.2015 17.094 32.2037 17.3146L32.2078 17.7157L32.7069 17.799C32.9814 17.8448 33.2447 17.8931 33.292 17.9063C33.3502 17.9226 33.378 18.0791 33.378 18.3904C33.378 18.9556 33.4597 19.1385 33.782 19.295C33.9195 19.3619 34.0475 19.432 34.0664 19.451C34.1626 19.5473 34.4876 19.7129 34.5803 19.7129C34.6384 19.7129 34.686 19.7426 34.686 19.7788C34.686 19.815 34.7161 19.8447 34.7529 19.8447C34.8104 19.8447 35.3961 20.0811 35.7185 20.2344C35.8304 20.2876 37.0958 20.6647 37.5427 20.7779C37.6941 20.8163 37.88 20.8709 37.9557 20.8991C38.0314 20.9274 38.2482 21.0009 38.4376 21.0626C38.9276 21.2221 40.2347 21.7921 40.3306 21.8881C40.3495 21.9071 40.4522 21.9757 40.5588 22.0407C40.9008 22.249 41.4896 22.7671 41.8106 23.142C41.9867 23.3477 42.19 23.9 42.1895 24.1717C42.1893 24.2873 42.2169 24.3983 42.2507 24.4183C42.2846 24.4383 42.3279 24.566 42.347 24.7021C42.3911 25.0165 42.5172 25.5033 42.5987 25.6741C42.6333 25.7465 42.677 25.8948 42.6958 26.0034C42.7646 26.4021 42.8848 26.8627 42.9492 26.9741C42.9855 27.037 43.0152 27.1616 43.0152 27.2509C43.0152 27.3403 43.044 27.4815 43.0791 27.5647C43.1142 27.6479 43.1942 27.9531 43.2568 28.243C43.3195 28.5328 43.3991 28.8214 43.4339 28.8843C43.4686 28.9472 43.4971 29.0467 43.4971 29.1054C43.4971 29.2463 43.7026 30.117 43.7755 30.2849C43.807 30.3574 43.8465 30.5204 43.8634 30.6472C43.9082 30.9839 44.0566 31.6476 44.1211 31.7999C44.1518 31.8724 44.1912 32.0354 44.2086 32.1622C44.2784 32.6696 44.4075 33.3222 44.4627 33.4467C44.5298 33.5982 44.6052 34.2544 44.6216 34.8299L44.6329 35.2251L12.309 35.2583L12.3542 34.9124L12.3544 34.9124ZM45.3556 30.9648C45.3556 30.8496 45.3271 30.6644 45.2924 30.5531C45.2275 30.3457 45.0906 29.7149 45.0338 29.3628C45.0163 29.2541 44.9771 29.1059 44.9467 29.0334C44.9162 28.961 44.8375 28.6646 44.7717 28.3747C44.7059 28.0849 44.6285 27.7885 44.5997 27.7161C44.5518 27.5956 44.3214 26.7288 44.1882 26.1681C44.0578 25.6195 43.9585 25.2711 43.9019 25.1645C43.8685 25.1016 43.8412 24.9816 43.8412 24.8978C43.8412 24.8139 43.8111 24.7166 43.7743 24.6814C43.7375 24.6462 43.6865 24.4022 43.6609 24.1392C43.6354 23.8761 43.5881 23.6453 43.5557 23.6262C43.5234 23.6071 43.497 23.5222 43.497 23.4375C43.497 23.1069 42.9937 22.3286 42.43 21.7877C42.1271 21.497 41.807 21.2058 41.7187 21.1407C41.411 20.9137 40.6716 20.5034 40.5702 20.5034C40.5141 20.5034 40.4682 20.4807 40.4682 20.453C40.4682 20.4001 39.9657 20.174 39.8482 20.174C39.8106 20.174 39.7798 20.1464 39.7798 20.1127C39.7798 20.079 39.7101 20.042 39.6249 20.0304C39.5254 20.0169 39.4622 19.9564 39.4481 19.8611C39.436 19.7796 39.4537 19.7129 39.4875 19.7129C39.5213 19.7129 39.6206 19.5756 39.7082 19.4078C39.8637 19.1099 40.4009 18.5273 40.52 18.5273C40.5529 18.5273 40.6399 18.4743 40.7133 18.4096C40.7867 18.3448 40.9474 18.2523 41.0705 18.204L41.2942 18.1161V17.4812C41.2942 16.7702 41.2705 16.7325 40.7692 16.6459C40.6226 16.6206 40.4716 16.5795 40.4338 16.5547C40.3959 16.5298 40.1791 16.4557 39.9519 16.39C39.7247 16.3244 39.4677 16.2449 39.3808 16.2133C39.2938 16.1818 39.1621 16.156 39.0882 16.156C39.0143 16.156 38.9538 16.1301 38.9538 16.0985C38.9538 16.0669 38.8365 16.0231 38.6931 16.0012C38.5498 15.9793 38.2787 15.8867 38.0908 15.7955C37.9029 15.7042 37.7104 15.6295 37.6631 15.6293C37.6157 15.6293 37.577 15.5994 37.577 15.5632C37.577 15.5269 37.6046 15.4973 37.6384 15.4973C37.6721 15.4973 37.7192 15.4232 37.7429 15.3326C37.7667 15.2421 37.8165 15.1679 37.8537 15.1679C37.8908 15.1679 37.9212 15.0938 37.9212 15.0033C37.9212 14.9127 37.9522 14.8386 37.99 14.8386C38.0279 14.8386 38.0589 14.7799 38.0589 14.7082C38.0589 14.6365 38.1092 14.4574 38.1707 14.3102C38.3012 13.9982 38.2599 13.908 38.081 14.1146C37.6596 14.6013 36.8886 15.2533 36.8886 15.1231C36.8886 15.0898 36.9171 15.0344 36.9518 15C37.0548 14.898 37.577 13.9008 37.577 13.806C37.577 13.7581 37.608 13.7188 37.6458 13.7188C37.6837 13.7188 37.7147 13.6862 37.7147 13.6464C37.7147 13.5761 37.8692 13.2085 37.9949 12.98C38.0733 12.8376 38.1992 12.3738 38.2416 12.0721C38.2593 11.9453 38.2997 11.7823 38.3313 11.7098C38.3932 11.5678 38.5309 10.6499 38.6178 9.7996C38.6475 9.50977 38.7008 9.09479 38.7364 8.87743C38.7721 8.66006 38.8384 8.20062 38.8838 7.85645C38.9292 7.51228 38.9922 7.17141 39.0238 7.09895C39.0555 7.0265 39.0992 6.83383 39.121 6.6708C39.1909 6.14914 39.3309 5.49754 39.384 5.44662C39.4124 5.4195 39.4356 5.32774 39.4356 5.24272C39.4356 5.1577 39.464 5.03666 39.4987 4.97375C39.5334 4.91085 39.6952 4.60002 39.8583 4.28305C40.0213 3.96608 40.1788 3.70669 40.2082 3.70669C40.2376 3.70669 40.2616 3.67294 40.2616 3.63169C40.2616 3.52979 40.9628 2.85377 41.0705 2.85192C41.1178 2.85107 41.1565 2.82727 41.1565 2.79898C41.1565 2.7707 41.2417 2.71258 41.3458 2.66982C41.4499 2.62707 41.702 2.50201 41.906 2.39191C42.11 2.28181 42.3191 2.19172 42.3707 2.19172C42.4222 2.19172 42.4644 2.16545 42.4644 2.13333C42.4644 2.10121 42.5496 2.05889 42.6537 2.03928C42.9812 1.97761 43.4563 1.84761 43.6216 1.77445C43.8428 1.6766 45.6119 1.68607 45.7159 1.78566C45.76 1.82785 45.8667 1.86238 45.953 1.86238C46.1239 1.86238 46.494 1.98575 47.0612 2.23175C47.261 2.31842 47.4546 2.38933 47.4914 2.38933C47.5282 2.38933 47.5584 2.41551 47.5584 2.44752C47.5584 2.47952 47.6126 2.52208 47.6788 2.54209C48.049 2.65389 49.0728 3.45741 49.0728 3.63611C49.0728 3.66977 49.1123 3.73646 49.1606 3.78434C49.3325 3.95485 49.8937 5.13512 49.9397 5.4229C49.9654 5.58395 50.0099 5.74536 50.0385 5.78159C50.0671 5.81782 50.1072 5.98084 50.1275 6.14387C50.1478 6.3069 50.2156 6.72187 50.2783 7.06604C50.4364 7.93486 50.6429 9.2755 50.7956 10.4254C50.933 11.4596 51.0967 12.2646 51.2141 12.4829C51.2479 12.5458 51.2757 12.6495 51.276 12.7134C51.2762 12.7773 51.3227 12.9145 51.3792 13.0182C51.4358 13.122 51.4821 13.248 51.4821 13.2982C51.4821 13.3484 51.513 13.3895 51.5509 13.3895C51.5888 13.3895 51.6197 13.4261 51.6197 13.4709C51.6197 13.5156 51.7018 13.7157 51.8022 13.9155C51.9025 14.1153 52.0651 14.4417 52.1636 14.641C52.262 14.8402 52.3726 15.0239 52.4094 15.0491C52.4461 15.0743 52.4568 15.1134 52.4331 15.1361C52.3666 15.1997 51.6786 14.6054 51.2478 14.1122L51.0479 13.8834L51.097 14.1469C51.1871 14.6296 51.4142 15.2031 51.5536 15.2996C51.5798 15.3177 51.623 15.3994 51.6496 15.4811C51.6858 15.5922 51.6665 15.6396 51.5728 15.6694C51.504 15.6912 51.3137 15.7664 51.15 15.8363C50.9863 15.9063 50.7611 15.981 50.6495 16.0024C50.5379 16.0237 50.4299 16.067 50.4096 16.0986C50.3892 16.1301 50.2965 16.1559 50.2036 16.1559C50.1106 16.1559 49.9808 16.1831 49.9151 16.2164C49.7887 16.2803 48.8889 16.5559 48.4096 16.6775C47.9901 16.784 47.9649 16.8392 48.0168 17.5392C48.061 18.1352 48.0674 18.1533 48.2577 18.222C48.3652 18.2608 48.4532 18.3158 48.4532 18.3441C48.4532 18.3723 48.4862 18.3955 48.5266 18.3955C48.6086 18.3955 49.0318 18.6868 49.2443 18.8895C49.3203 18.962 49.4444 19.1394 49.5201 19.2837C49.5959 19.4281 49.6965 19.5858 49.7439 19.6342C49.7912 19.6827 49.8299 19.7454 49.8299 19.7737C49.8299 19.8954 50.2515 20.2319 50.4945 20.3042C50.7634 20.3842 51.0245 20.4882 51.5121 20.7096C51.6612 20.7773 51.8238 20.8326 51.8735 20.8326C51.9232 20.8326 51.9638 20.8617 51.9638 20.8973C51.9638 20.9328 52.0413 20.9805 52.1359 21.0032C52.2306 21.0259 52.308 21.0668 52.308 21.0939C52.308 21.1668 52.9877 21.4913 53.1404 21.4913C53.2126 21.4913 53.2717 21.5142 53.2717 21.5422C53.2717 21.5991 53.7882 21.7445 54.1842 21.799C54.3264 21.8186 54.4599 21.8611 54.4808 21.8935C54.5018 21.9259 54.5959 21.9524 54.69 21.9524C54.7841 21.9524 55.0688 22.001 55.3227 22.0603C55.8218 22.177 56.4621 22.5694 56.5409 22.8071C56.5653 22.8805 56.6141 22.9405 56.6494 22.9405C56.6847 22.9405 56.7136 22.9849 56.7136 23.0393C56.7136 23.0936 56.7368 23.1383 56.7652 23.1385C56.8327 23.1391 57.0578 23.5186 57.0578 23.6319C57.0578 23.6803 57.0939 23.7315 57.1381 23.7455C57.2227 23.7725 57.298 24.8556 57.3751 27.1561C57.3976 27.8264 57.4438 28.4029 57.4778 28.4373C57.5118 28.4717 57.5396 29.1016 57.5396 29.837V31.1742H45.3554L45.3556 30.9648ZM0.198421 30.0912C0.198421 29.9303 0.167444 29.7804 0.129583 29.758C0.0435921 29.7072 0.0368254 28.1291 0.122224 28.0421C0.156037 28.0077 0.202165 27.6387 0.224736 27.222C0.269232 26.4006 0.408242 25.4173 0.490978 25.3388C0.519373 25.3119 0.542606 25.2188 0.542606 25.1321C0.542606 24.9625 0.718154 24.3641 0.822924 24.1764C0.858052 24.1135 0.886793 24.0196 0.886793 23.9677C0.886793 23.9158 0.931918 23.7894 0.987069 23.6869C1.04222 23.5843 1.12722 23.404 1.17596 23.2863C1.22471 23.1686 1.28251 23.0722 1.30441 23.0722C1.32632 23.0722 1.41552 22.9357 1.50262 22.7688C1.7017 22.3873 2.55287 21.5568 2.9175 21.3882C3.06894 21.3181 3.20317 21.2386 3.21579 21.2114C3.22841 21.1842 3.26728 21.162 3.30217 21.162C3.33706 21.162 3.52614 21.0879 3.72234 20.9973C3.91854 20.9068 4.11974 20.8327 4.16944 20.8327C4.21915 20.8327 4.25981 20.8034 4.25981 20.7676C4.25981 20.7318 4.38441 20.6834 4.53669 20.6601C4.68897 20.6368 4.8302 20.592 4.85052 20.5605C4.87084 20.5291 4.94802 20.5033 5.02202 20.5033C5.09602 20.5033 5.21036 20.4774 5.2761 20.4457C5.34184 20.4139 5.58149 20.3344 5.80865 20.2689C6.03581 20.2035 6.25265 20.1319 6.29051 20.1099C6.32837 20.0879 6.53746 20.0144 6.75516 19.9465C6.97286 19.8787 7.15097 19.7984 7.15097 19.7681C7.15097 19.7377 7.22067 19.7119 7.30586 19.7108C7.39104 19.7097 7.52087 19.6652 7.59436 19.612C7.66785 19.5588 7.78401 19.5153 7.8525 19.5153C7.92099 19.5153 7.97702 19.4856 7.97702 19.4494C7.97702 19.4132 8.02391 19.3835 8.08121 19.3835C8.13852 19.3835 8.23919 19.3553 8.30493 19.3209C8.37067 19.2864 8.54837 19.2064 8.69981 19.1432C8.85125 19.0799 8.99065 19.0109 9.00958 18.9899C9.02851 18.9689 9.18339 18.8941 9.35376 18.8237C9.52414 18.7532 9.67902 18.6799 9.69795 18.6608C9.74279 18.6155 10.4541 18.2865 10.61 18.2388C10.6763 18.2186 10.7305 18.1418 10.7305 18.0682C10.7305 17.9946 10.7584 17.9344 10.7924 17.9344C10.8265 17.9344 10.8709 17.8084 10.8912 17.6545C10.9115 17.5005 10.9786 17.1374 11.0401 16.8476C11.2436 15.8901 11.2434 15.9188 11.0473 15.7163C10.9488 15.6147 10.8682 15.4942 10.8682 15.4485C10.8682 15.4028 10.8406 15.3655 10.8068 15.3655C10.7731 15.3655 10.726 15.2914 10.7022 15.2008C10.6785 15.1103 10.6287 15.0361 10.5915 15.0361C10.5544 15.0361 10.524 14.9917 10.524 14.9373C10.524 14.883 10.493 14.8385 10.4552 14.8385C10.4173 14.8385 10.3863 14.7912 10.3863 14.7334C10.3863 14.6756 10.3426 14.5497 10.2891 14.4535C10.1038 14.1204 9.89881 13.6423 9.85842 13.449C9.8361 13.3423 9.79087 13.239 9.7579 13.2195C9.72493 13.2 9.69795 13.1088 9.69795 13.0169C9.69795 12.925 9.64929 12.6896 9.58981 12.4938C9.49172 12.171 9.46349 12.1379 9.28616 12.1379C9.07161 12.1379 8.7574 11.8419 8.70383 11.5894C8.57547 10.9842 8.5211 10.4746 8.50823 9.75643C8.49218 8.86034 8.4956 8.85066 8.91388 8.60899C9.02238 8.54631 9.0261 8.51464 8.94653 8.3308C8.8201 8.03875 8.79996 5.13285 8.92353 5.01428C8.97086 4.96889 9.00958 4.88113 9.00958 4.81927C9.00958 4.41892 9.9521 3.3129 10.5756 2.98152C10.7365 2.896 10.8682 2.80507 10.8682 2.77944C10.8682 2.75381 10.9456 2.71423 11.0403 2.6915C11.1349 2.66877 11.2124 2.6211 11.2124 2.58555C11.2124 2.55002 11.2588 2.52094 11.3156 2.52094C11.3724 2.52094 11.4189 2.4933 11.4189 2.45951C11.4189 2.42572 11.4754 2.38093 11.5444 2.35995C11.6135 2.33899 11.7306 2.2703 11.8046 2.20731C11.8787 2.14432 12.0468 2.03499 12.1781 1.96435C12.3095 1.89372 12.479 1.78014 12.5547 1.71196C12.6304 1.64379 12.7466 1.55975 12.8128 1.5252C12.9195 1.46959 12.9333 1.49661 12.9333 1.76113C12.9333 1.92543 12.9491 2.05986 12.9685 2.05986C12.9879 2.05986 13.3314 1.74633 13.7318 1.36309C14.1323 0.979891 14.4792 0.68477 14.5027 0.707225C14.5262 0.72968 14.5532 0.939256 14.5627 1.1729C14.5722 1.40655 14.6197 1.66464 14.6682 1.74643L14.7565 1.89515L14.7788 1.71401C14.8044 1.50582 14.9309 1.48284 15.23 1.63208C15.3384 1.6862 15.4701 1.73048 15.5226 1.73048C15.575 1.73048 15.6179 1.75359 15.6179 1.78185C15.6179 1.8101 15.7728 1.89073 15.9621 1.96102C16.1514 2.03131 16.3063 2.1053 16.3063 2.12543C16.3063 2.14556 16.4454 2.22055 16.6154 2.29207C16.7854 2.36359 16.9248 2.44434 16.9252 2.47151C16.9255 2.49868 16.9576 2.52091 16.9964 2.52091C17.0838 2.52091 17.9843 3.05719 18.0158 3.12803C18.0284 3.1564 18.0771 3.1796 18.1241 3.1796C18.2757 3.1796 19.0422 3.9477 19.1757 4.23351C19.2011 4.28785 19.2399 4.34714 19.2619 4.36525C19.3461 4.43454 19.5424 5.06649 19.542 5.26707C19.5418 5.38267 19.5767 5.49798 19.6196 5.52331C19.696 5.56853 19.6753 6.6093 19.5692 8.05394L19.528 8.61383L19.7758 8.73948C19.9121 8.80858 20.0236 8.90492 20.0236 8.95355C20.0236 9.00219 20.051 9.04198 20.0846 9.04198C20.1951 9.04198 20.2272 9.58941 20.1638 10.3923C20.1294 10.827 20.0804 11.2782 20.0549 11.395C19.9994 11.6488 19.7149 11.9402 19.5227 11.9402C19.3529 11.9402 19.2026 12.1191 19.1997 12.3246C19.1967 12.536 18.9687 13.3513 18.905 13.3784C18.8766 13.3905 18.8533 13.4663 18.8533 13.547C18.8533 13.6276 18.8078 13.7511 18.7522 13.8214C18.6967 13.8917 18.6502 13.9839 18.649 14.0262C18.6434 14.2226 17.9351 15.2546 17.4254 15.8091C17.3161 15.928 17.2963 16.0231 17.3225 16.3031C17.3404 16.4939 17.3824 16.6781 17.4158 16.7125C17.4492 16.7469 17.4765 16.8781 17.4765 17.0041C17.4765 17.1301 17.5276 17.4432 17.59 17.7L17.7035 18.1667L18.6742 18.6249C19.2081 18.877 19.7482 19.1404 19.8745 19.2103L20.1041 19.3373L19.8401 19.4306C19.6948 19.4819 19.5218 19.5403 19.4556 19.5602C19.3893 19.5802 19.3351 19.6227 19.3351 19.6547C19.3351 19.6867 19.2577 19.7129 19.163 19.7129C19.0684 19.7129 18.9909 19.7425 18.9909 19.7787C18.9909 19.815 18.9522 19.8453 18.9049 19.8461C18.8575 19.8469 18.633 19.9352 18.4058 20.0422C18.1786 20.1493 17.9541 20.2375 17.9067 20.2383C17.8594 20.2391 17.8207 20.2622 17.8207 20.2896C17.8207 20.317 17.72 20.3803 17.597 20.4303C17.4739 20.4803 17.1804 20.6358 16.9447 20.7758C16.709 20.9157 16.4961 21.0303 16.4716 21.0303C16.4229 21.0303 15.6749 21.5348 15.4324 21.7312C15.3493 21.7985 15.1944 21.9196 15.0882 22.0002C14.7355 22.2681 14.4836 22.5085 14.1724 22.8746C14.003 23.0738 13.8485 23.2517 13.829 23.2698C13.8096 23.2879 13.7599 23.362 13.7186 23.4345C13.6774 23.5069 13.5625 23.7058 13.4634 23.8765C13.2385 24.2636 12.9332 25.1 12.9332 25.3289C12.9332 25.4234 12.9028 25.5772 12.8657 25.6706C12.8286 25.764 12.7639 26.0253 12.7218 26.2513C12.6384 26.6995 12.5836 26.9498 12.4157 27.6501C12.3549 27.9037 12.278 28.2298 12.2449 28.3747C12.2117 28.5196 12.1345 28.8457 12.0734 29.0993C12.0123 29.3529 11.9374 29.6937 11.9069 29.8568C11.797 30.444 12.4758 30.3837 5.97331 30.3837H0.198356L0.198421 30.0912Z" fill="#B41F26"/>
</svg>
