<svg width="17" height="17" viewBox="0 0 17 17" fill="none" xmlns="http://www.w3.org/2000/svg">
<path d="M8.50173 4.43058C6.2303 4.43058 4.39816 6.24746 4.39816 8.49996C4.39816 10.7525 6.2303 12.5693 8.50173 12.5693C10.7732 12.5693 12.6053 10.7525 12.6053 8.49996C12.6053 6.24746 10.7732 4.43058 8.50173 4.43058ZM8.50173 11.1456C7.03387 11.1456 5.83388 9.95912 5.83388 8.49996C5.83388 7.04079 7.0303 5.85433 8.50173 5.85433C9.97316 5.85433 11.1696 7.04079 11.1696 8.49996C11.1696 9.95912 9.96959 11.1456 8.50173 11.1456ZM13.7303 4.26412C13.7303 4.79183 13.3017 5.21329 12.7732 5.21329C12.241 5.21329 11.816 4.78829 11.816 4.26412C11.816 3.73995 12.2446 3.31495 12.7732 3.31495C13.3017 3.31495 13.7303 3.73995 13.7303 4.26412ZM16.4482 5.22746C16.3874 3.956 16.0946 2.82975 15.1553 1.90183C14.2196 0.973913 13.0839 0.683496 11.8017 0.619746C10.4803 0.545371 6.51959 0.545371 5.19816 0.619746C3.91959 0.679954 2.78388 0.970371 1.84459 1.89829C0.905305 2.8262 0.616019 3.95245 0.551733 5.22391C0.476733 6.53433 0.476733 10.462 0.551733 11.7725C0.612448 13.0439 0.905305 14.1702 1.84459 15.0981C2.78388 16.026 3.91602 16.3164 5.19816 16.3802C6.51959 16.4545 10.4803 16.4545 11.8017 16.3802C13.0839 16.32 14.2196 16.0295 15.1553 15.0981C16.091 14.1702 16.3839 13.0439 16.4482 11.7725C16.5232 10.462 16.5232 6.53787 16.4482 5.22746ZM14.741 13.1785C14.4624 13.8727 13.9232 14.4075 13.2196 14.6872C12.166 15.1016 9.66602 15.006 8.50173 15.006C7.33745 15.006 4.83388 15.0981 3.78388 14.6872C3.08388 14.411 2.54459 13.8762 2.26245 13.1785C1.84459 12.1337 1.94102 9.65454 1.94102 8.49996C1.94102 7.34537 1.84816 4.86266 2.26245 3.82141C2.54102 3.12725 3.0803 2.59245 3.78388 2.31266C4.83745 1.89829 7.33745 1.99391 8.50173 1.99391C9.66602 1.99391 12.1696 1.90183 13.2196 2.31266C13.9196 2.58891 14.4589 3.1237 14.741 3.82141C15.1589 4.8662 15.0624 7.34537 15.0624 8.49996C15.0624 9.65454 15.1589 12.1372 14.741 13.1785Z" fill="white" fill-opacity="1"/>
</svg>
