<svg width="53" height="19" viewBox="0 0 53 19" fill="none" xmlns="http://www.w3.org/2000/svg">
<g clip-path="url(#clip0_1378_1222)">
<mask id="mask0_1378_1222" style="mask-type:luminance" maskUnits="userSpaceOnUse" x="0" y="2" width="53" height="14">
<path d="M52.5 2H0.5V16H52.5V2Z" fill="white"/>
</mask>
<g mask="url(#mask0_1378_1222)">
<path d="M20.377 2.3291L15.8907 14.736H18.3017L19.2327 12.1448H23.9959L24.9225 14.736H27.3151L22.8455 2.3291H20.377ZM20.0496 9.86774L21.6193 5.50191L23.18 9.86774H20.0496Z" fill="white"/>
<path d="M48.2332 5.86304C47.3895 5.86304 46.5649 6.12778 45.8636 6.62383C45.1622 7.11983 44.6158 7.82488 44.2931 8.6497C43.9701 9.47456 43.8859 10.3822 44.0502 11.2579C44.2148 12.1335 44.621 12.9379 45.2176 13.5692C45.8138 14.2005 46.5736 14.6305 47.401 14.8047C48.2283 14.9788 49.0859 14.8894 49.8652 14.5478C50.6442 14.2061 51.3104 13.6275 51.7788 12.8851C52.2477 12.1428 52.4976 11.27 52.4976 10.3772C52.4976 9.17997 52.0482 8.03178 51.2487 7.18523C50.4489 6.33863 49.364 5.86304 48.2332 5.86304ZM48.2332 12.5768C47.8221 12.5768 47.4204 12.4479 47.079 12.2063C46.7372 11.9646 46.4709 11.6212 46.3136 11.2193C46.1563 10.8175 46.1152 10.3753 46.1956 9.94879C46.2757 9.52223 46.4734 9.13038 46.764 8.82286C47.0546 8.5153 47.4246 8.30585 47.8277 8.22101C48.2307 8.13616 48.6484 8.17971 49.0281 8.34616C49.4075 8.51257 49.7323 8.79445 49.9606 9.15606C50.1886 9.5177 50.3104 9.94286 50.3104 10.3778C50.3111 10.6667 50.2575 10.9529 50.1534 11.2199C50.049 11.4869 49.8962 11.7295 49.703 11.9338C49.5102 12.1381 49.2808 12.3001 49.0285 12.4104C48.7765 12.5207 48.506 12.5773 48.2332 12.5768Z" fill="white"/>
<path d="M30.1879 11.5362L28.2405 6.01953H25.9409L29.0752 14.736H31.3565L34.4348 6.01953H32.1352L30.1879 11.5362Z" fill="white"/>
<path d="M41.6677 3.70337H39.4794V6.01967H38.2V8.10088H39.4794V11.8113C39.4794 13.9118 40.5737 14.8147 42.1128 14.8147C42.6349 14.8226 43.1528 14.7156 43.6338 14.5004V12.3413C43.3721 12.4434 43.0961 12.4975 42.8173 12.5013C42.1529 12.5013 41.6677 12.2263 41.6677 11.2842V8.10088H43.6338V6.01967H41.6677V3.70337Z" fill="white"/>
<path d="M36.2338 5.39172C37.1148 5.39172 37.829 4.63579 37.829 3.7033C37.829 2.77082 37.1148 2.01489 36.2338 2.01489C35.3529 2.01489 34.6387 2.77082 34.6387 3.7033C34.6387 4.63579 35.3529 5.39172 36.2338 5.39172Z" fill="white"/>
<path d="M37.3281 6.01953H35.1399V14.736H37.3281V6.01953Z" fill="white"/>
<path d="M4.77993 15.973C7.13583 15.973 9.0457 13.9514 9.0457 11.4577C9.0457 8.96395 7.13583 6.94238 4.77993 6.94238C2.42401 6.94238 0.51416 8.96395 0.51416 11.4577C0.51416 13.9514 2.42401 15.973 4.77993 15.973Z" fill="#04E061"/>
<path d="M12.1799 15.4032C13.6035 15.4032 14.7576 14.1816 14.7576 12.6747C14.7576 11.1678 13.6035 9.94629 12.1799 9.94629C10.7564 9.94629 9.60229 11.1678 9.60229 12.6747C9.60229 14.1816 10.7564 15.4032 12.1799 15.4032Z" fill="#FF4053"/>
<path d="M5.59582 6.35364C6.47679 6.35364 7.19094 5.59771 7.19094 4.66522C7.19094 3.73274 6.47679 2.97681 5.59582 2.97681C4.71488 2.97681 4.00073 3.73274 4.00073 4.66522C4.00073 5.59771 4.71488 6.35364 5.59582 6.35364Z" fill="#965EEB"/>
<path d="M11.1786 9.35716C13.094 9.35716 14.6468 7.71353 14.6468 5.68603C14.6468 3.65851 13.094 2.01489 11.1786 2.01489C9.26309 2.01489 7.71033 3.65851 7.71033 5.68603C7.71033 7.71353 9.26309 9.35716 11.1786 9.35716Z" fill="#00AAFF"/>
</g>
</g>
<defs>
<clipPath id="clip0_1378_1222">
<rect width="52" height="19" fill="white" transform="translate(0.5)"/>
</clipPath>
</defs>
</svg>
