<svg width="52" height="20" viewBox="0 0 52 20" fill="none" xmlns="http://www.w3.org/2000/svg">
<mask id="mask0_1376_1091" style="mask-type:luminance" maskUnits="userSpaceOnUse" x="0" y="2" width="52" height="15">
<path d="M52 2.52154H0V16.5215H52V2.52154Z" fill="white"/>
</mask>
<g mask="url(#mask0_1376_1091)">
<path d="M19.877 2.85072L15.3907 15.2576H17.8017L18.7327 12.6664H23.4959L24.4225 15.2576H26.8151L22.3455 2.85072H19.877ZM19.5496 10.3894L21.1193 6.02353L22.68 10.3894H19.5496Z" fill="white"/>
<path d="M47.7332 6.38465C46.8895 6.38465 46.0649 6.6494 45.3636 7.14544C44.6622 7.64145 44.1158 8.3465 43.7931 9.17132C43.4701 9.99618 43.3859 10.9038 43.5502 11.7795C43.7148 12.6551 44.121 13.4595 44.7176 14.0908C45.3138 14.7221 46.0736 15.1521 46.901 15.3263C47.7283 15.5004 48.5859 15.411 49.3652 15.0694C50.1442 14.7277 50.8104 14.1491 51.2788 13.4068C51.7477 12.6644 51.9976 11.7916 51.9976 10.8988C51.9976 9.70159 51.5482 8.5534 50.7487 7.70684C49.9489 6.86025 48.864 6.38465 47.7332 6.38465ZM47.7332 13.0985C47.3221 13.0985 46.9204 12.9695 46.579 12.7279C46.2372 12.4862 45.9709 12.1428 45.8136 11.7409C45.6563 11.3391 45.6152 10.897 45.6956 10.4704C45.7757 10.0438 45.9734 9.652 46.264 9.34448C46.5546 9.03692 46.9246 8.82747 47.3277 8.74262C47.7307 8.65778 48.1484 8.70132 48.5281 8.86778C48.9075 9.03419 49.2323 9.31607 49.4606 9.67768C49.6886 10.0393 49.8104 10.4645 49.8104 10.8994C49.8111 11.1883 49.7575 11.4745 49.6534 11.7415C49.549 12.0085 49.3962 12.2511 49.203 12.4554C49.0102 12.6597 48.7808 12.8217 48.5285 12.932C48.2765 13.0424 48.006 13.0989 47.7332 13.0985Z" fill="white"/>
<path d="M29.6879 12.0579L27.7405 6.5412H25.4409L28.5752 15.2576H30.8565L33.9348 6.5412H31.6352L29.6879 12.0579Z" fill="white"/>
<path d="M41.1677 4.22488H38.9794V6.54118H37.7V8.6224H38.9794V12.3328C38.9794 14.4334 40.0737 15.3362 41.6128 15.3362C42.1349 15.3442 42.6528 15.2371 43.1338 15.0219V12.8628C42.8721 12.9649 42.5961 13.019 42.3173 13.0228C41.6529 13.0228 41.1677 12.7479 41.1677 11.8057V8.6224H43.1338V6.54118H41.1677V4.22488Z" fill="white"/>
<path d="M35.7338 5.91332C36.6148 5.91332 37.329 5.15739 37.329 4.2249C37.329 3.29242 36.6148 2.53649 35.7338 2.53649C34.8529 2.53649 34.1387 3.29242 34.1387 4.2249C34.1387 5.15739 34.8529 5.91332 35.7338 5.91332Z" fill="white"/>
<path d="M36.8281 6.5412H34.6399V15.2576H36.8281V6.5412Z" fill="white"/>
<path d="M4.27993 16.4946C6.63583 16.4946 8.5457 14.473 8.5457 11.9793C8.5457 9.48553 6.63583 7.46396 4.27993 7.46396C1.92401 7.46396 0.0141602 9.48553 0.0141602 11.9793C0.0141602 14.473 1.92401 16.4946 4.27993 16.4946Z" fill="#04E061"/>
<path d="M11.6799 15.9248C13.1035 15.9248 14.2576 14.7032 14.2576 13.1963C14.2576 11.6895 13.1035 10.4679 11.6799 10.4679C10.2564 10.4679 9.10229 11.6895 9.10229 13.1963C9.10229 14.7032 10.2564 15.9248 11.6799 15.9248Z" fill="#FF4053"/>
<path d="M5.09582 6.87534C5.97679 6.87534 6.69094 6.11941 6.69094 5.18692C6.69094 4.25444 5.97679 3.49851 5.09582 3.49851C4.21488 3.49851 3.50073 4.25444 3.50073 5.18692C3.50073 6.11941 4.21488 6.87534 5.09582 6.87534Z" fill="#965EEB"/>
<path d="M10.6786 9.87876C12.594 9.87876 14.1468 8.23513 14.1468 6.20763C14.1468 4.18011 12.594 2.53649 10.6786 2.53649C8.76309 2.53649 7.21033 4.18011 7.21033 6.20763C7.21033 8.23513 8.76309 9.87876 10.6786 9.87876Z" fill="#00AAFF"/>
</g>
</svg>
